G04 ================== begin FILE IDENTIFICATION RECORD ==================*
G04 Layout Name:  H:/JJL/PROJ/GS-Respeaker-Adapter/DESIGN/Adapter-Rev01.brd*
G04 Film Name:    SixMicAdapter-SILKSCREEN_TOP-20200424*
G04 File Format:  Gerber RS274X*
G04 File Origin:  Cadence Allegro 16.6-2015-S108*
G04 Origin Date:  Fri Apr 24 13:42:40 2020*
G04 *
G04 Layer:  REF DES/SILKSCREEN_TOP*
G04 Layer:  PACKAGE GEOMETRY/SILKSCREEN_TOP*
G04 Layer:  BOARD GEOMETRY/SILKSCREEN_TOP*
G04 *
G04 Offset:    (0.0000 0.0000)*
G04 Mirror:    No*
G04 Mode:      Positive*
G04 Rotation:  0*
G04 FullContactRelief:  No*
G04 UndefLineWidth:     0.0000*
G04 ================== end FILE IDENTIFICATION RECORD ====================*
%FSLAX35Y35*MOMM*%
%IR0*IPPOS*OFA0.00000B0.00000*MIA0B0*SFA1.00000B1.00000*%
%ADD10C,.2*%
%ADD11C,.3*%
%ADD12C,.201*%
%ADD13C,.127*%
%ADD14C,1.*%
G75*
%LPD*%
G75*
G54D10*
G01X-3579700Y-2015000D02*
G03I-130000J0D01*
G01X-3879700D02*
G03I-130000J0D01*
G01Y-2315000D02*
G03I-130000J0D01*
G01X-3579700D02*
G03I-130000J0D01*
G01X-4290800Y-1433580D02*
X-4190800D01*
Y-1653580D01*
X-3930800D01*
Y-1433580D01*
X-3130800D01*
Y-1653580D01*
X-2830800D01*
Y-1433580D01*
X-2690800D01*
Y-1173580D01*
X-2550800D01*
Y-873580D01*
X-2690800D01*
Y-733580D01*
X-4290800D01*
G01X-4050800Y-1233580D02*
X-3950800D01*
Y-893580D01*
X-4050800D01*
Y-1333580D01*
G01X-3729700Y2055190D02*
G03I-130000J0D01*
G01X-3879700Y2315000D02*
G03I-130000J0D01*
G01X-3469890Y2205190D02*
G03I-130000J0D01*
G01X-3619890Y2465000D02*
G03I-130000J0D01*
G01X-2970800Y-1373580D02*
Y-1293580D01*
X-3330800D01*
X-3410800Y-1213580D01*
X-3490800Y-1293580D01*
G01X-3210800Y-1273580D02*
X-3150800Y-1213580D01*
G01X-3210800Y-1273580D02*
X-3270800Y-1213580D01*
G01X-3210800Y-1273580D02*
Y-1013580D01*
X-2870800D01*
G01X-3386920Y2999150D02*
X-3336920Y2912550D01*
X-3527440Y2802550D01*
X-3397440Y2577380D01*
X-3206920Y2687380D01*
X-2806920Y1994560D01*
X-2997440Y1884560D01*
X-2847440Y1624750D01*
X-2656920Y1734750D01*
X-2586920Y1613510D01*
X-2361750Y1743510D01*
X-2291750Y1622260D01*
X-2031940Y1772260D01*
X-2101940Y1893510D01*
X-1980700Y1963510D01*
X-2780700Y3349150D01*
G01X-2674960Y1885990D02*
X-2605680Y1925990D01*
X-2785680Y2237760D01*
X-2756390Y2347050D01*
X-2865680Y2376330D01*
G01X-3093710Y2891300D02*
X-3043710Y2804700D01*
X-2749260Y2974700D01*
X-2799260Y3061300D01*
X-3180320Y2841300D01*
G01X-2708350Y2143840D02*
X-2626390Y2121880D01*
G01X-2708350Y2143840D02*
X-2686390Y2225800D01*
G01X-2708350Y2143840D02*
X-2483190Y2273840D01*
X-2313190Y1979390D01*
G01X-903880Y-4432730D02*
X-853880Y-4346130D01*
X-663360Y-4456130D01*
X-533360Y-4230960D01*
X-723880Y-4120960D01*
X-323880Y-3428140D01*
X-133360Y-3538140D01*
X16640Y-3278330D01*
X-173880Y-3168330D01*
X-103880Y-3047090D01*
X-329050Y-2917090D01*
X-259050Y-2795840D01*
X-518860Y-2645840D01*
X-588860Y-2767090D01*
X-710100Y-2697090D01*
X-1510100Y-4082730D01*
G01X-957090Y-4124880D02*
X-907090Y-4038280D01*
X-1201540Y-3868280D01*
X-1251540Y-3954880D01*
X-870480Y-4174880D01*
G01X130000Y-4630000D02*
G03I-130000J0D01*
G01X20190Y-4220190D02*
G03I-130000J0D01*
G01X-129810Y-4480000D02*
G03I-130000J0D01*
G01X-295840Y-3259570D02*
X-365120Y-3219570D01*
X-545120Y-3531340D01*
X-654410Y-3560630D01*
X-625120Y-3669910D01*
G01X-502450Y-3417420D02*
X-524410Y-3335460D01*
G01X-502450Y-3417420D02*
X-584410Y-3439380D01*
G01X-502450Y-3417420D02*
X-727610Y-3287420D01*
X-557610Y-2992970D01*
G01X-20000Y4370190D02*
G03I-130000J0D01*
G01X130000Y4630000D02*
G03I-130000J0D01*
G01X280000Y-4370190D02*
G03I-130000J0D01*
G01X903880Y4432730D02*
X853880Y4346130D01*
X663360Y4456130D01*
X533360Y4230960D01*
X723880Y4120960D01*
X323880Y3428140D01*
X133360Y3538140D01*
X-16640Y3278330D01*
X173880Y3168330D01*
X103880Y3047090D01*
X329050Y2917090D01*
X259050Y2795840D01*
X518860Y2645840D01*
X588860Y2767090D01*
X710100Y2697090D01*
X1510100Y4082730D01*
G01X295840Y3259570D02*
X365120Y3219570D01*
X545120Y3531340D01*
X654410Y3560630D01*
X625120Y3669910D01*
G01X502450Y3417420D02*
X524410Y3335460D01*
G01X502450Y3417420D02*
X727610Y3287420D01*
X557610Y2992970D01*
G01X239810Y4220190D02*
G03I-130000J0D01*
G01X502450Y3417420D02*
X584410Y3439380D01*
G01X389810Y4480000D02*
G03I-130000J0D01*
G01X957090Y4124880D02*
X907090Y4038280D01*
X1201540Y3868280D01*
X1251540Y3954880D01*
X870480Y4174880D01*
G01X1830000Y3800000D02*
G03I-130000J0D01*
G01X3386920Y-2999150D02*
X3336920Y-2912550D01*
X3527440Y-2802550D01*
X3397440Y-2577380D01*
X3206920Y-2687380D01*
X2806920Y-1994560D01*
X2997440Y-1884560D01*
X2847440Y-1624750D01*
X2656920Y-1734750D01*
X2586920Y-1613510D01*
X2361750Y-1743510D01*
X2291750Y-1622260D01*
X2031940Y-1772260D01*
X2101940Y-1893510D01*
X1980700Y-1963510D01*
X2780700Y-3349150D01*
G01X2708350Y-2143840D02*
X2483190Y-2273840D01*
X2313190Y-1979390D01*
G01X2674960Y-1885990D02*
X2605680Y-1925990D01*
X2785680Y-2237760D01*
X2756390Y-2347050D01*
X2865680Y-2376330D01*
G01X4290800Y1433580D02*
X4190800D01*
Y1653580D01*
X3930800D01*
Y1433580D01*
X3130800D01*
Y1653580D01*
X2830800D01*
Y1433580D01*
X2690800D01*
Y1173580D01*
X2550800D01*
Y873580D01*
X2690800D01*
Y733580D01*
X4290800D01*
G01X3093710Y-2891300D02*
X3043710Y-2804700D01*
X2749260Y-2974700D01*
X2799260Y-3061300D01*
X3180320Y-2841300D01*
G01X3729890Y-2205200D02*
G03I-130000J0D01*
G01X2708350Y-2143840D02*
X2626390Y-2121880D01*
G01X2708350Y-2143840D02*
X2686390Y-2225800D01*
G01X2970800Y1373580D02*
Y1293580D01*
X3330800D01*
X3410800Y1213580D01*
X3490800Y1293580D01*
G01X3210800Y1273580D02*
X3150800Y1213580D01*
G01X3210800Y1273580D02*
X3270800Y1213580D01*
G01X3210800Y1273580D02*
Y1013580D01*
X2870800D01*
G01X3879900Y-2465000D02*
G03I-130005J0D01*
G01X3989700Y-2055200D02*
G03I-130000J0D01*
G01X4139700Y-2315000D02*
G03I-130000J0D01*
G01X4050800Y1233580D02*
X3950800D01*
Y893580D01*
X4050800D01*
Y1333580D01*
G01X4139700Y2315000D02*
G03I-130000J0D01*
G01X3839700D02*
G03I-130000J0D01*
G01Y2015000D02*
G03I-130000J0D01*
G01X4139700D02*
G03I-130000J0D01*
G54D11*
G01X-4145600Y-550000D02*
Y-250000D01*
X-4052000Y-500000D01*
X-3958400Y-250000D01*
Y-550000D01*
G01X-3869200Y-250000D02*
X-3782810D01*
G01X-3826000D02*
Y-550000D01*
G01X-3869200D02*
X-3782810D01*
G01X-3520800Y-275000D02*
X-3542400Y-260000D01*
X-3567600Y-250000D01*
X-3596400D01*
X-3628800Y-265010D01*
X-3654000Y-290000D01*
X-3672000Y-320000D01*
X-3686400Y-370000D01*
X-3690000Y-415000D01*
X-3682800Y-460000D01*
X-3672000Y-490000D01*
X-3650400Y-520010D01*
X-3625200Y-540000D01*
X-3600000Y-550000D01*
X-3574800D01*
X-3549600Y-540000D01*
X-3528000Y-525010D01*
X-3510000Y-505010D01*
G01X-3220000Y-650000D02*
X-3148000Y-250000D01*
G01X-3076000D02*
X-3148000Y-650000D01*
G01X-3256000Y-500000D02*
X-3040000D01*
G01Y-400000D02*
X-3256000D01*
G01X-2922000Y-550000D02*
Y-250000D01*
X-2965200Y-310000D01*
G01Y-550000D02*
X-2878810D01*
G01X-4275000Y1100000D02*
X-3875000D01*
Y200000D01*
X-4275000D01*
G01X-4285000Y800000D02*
Y944000D01*
X-3985000D01*
Y800000D01*
G01X-4130000Y857600D02*
Y944000D01*
G01X-3985000Y646000D02*
X-4285000D01*
G01X-3985000Y728800D02*
Y563200D01*
G01X-4285000Y495600D02*
X-3985000D01*
G01Y344400D02*
X-4285000D01*
G01X-4135000D02*
Y495600D01*
G01X-2415600Y-3410000D02*
Y-3110000D01*
X-2322000Y-3360000D01*
X-2228400Y-3110000D01*
Y-3410000D01*
G01X-2139200Y-3110000D02*
X-2052810D01*
G01X-2096000D02*
Y-3410000D01*
G01X-2139200D02*
X-2052810D01*
G01X-1790800Y-3135000D02*
X-1812400Y-3120000D01*
X-1837600Y-3110000D01*
X-1866400D01*
X-1898800Y-3125010D01*
X-1924000Y-3150000D01*
X-1942000Y-3180000D01*
X-1956400Y-3230000D01*
X-1960000Y-3275000D01*
X-1952800Y-3320000D01*
X-1942000Y-3350000D01*
X-1920400Y-3380010D01*
X-1895200Y-3400000D01*
X-1870000Y-3410000D01*
X-1844800D01*
X-1819600Y-3400000D01*
X-1798000Y-3385010D01*
X-1780000Y-3365010D01*
G01X-1490000Y-3510000D02*
X-1418000Y-3110000D01*
G01X-1346000D02*
X-1418000Y-3510000D01*
G01X-1526000Y-3360000D02*
X-1310000D01*
G01Y-3260000D02*
X-1526000D01*
G01X-1260400Y-3285010D02*
X-1235200Y-3250000D01*
X-1213600Y-3230000D01*
X-1184800Y-3220000D01*
X-1159600Y-3230000D01*
X-1141600Y-3250000D01*
X-1127200Y-3280000D01*
X-1123600Y-3315000D01*
X-1127200Y-3345000D01*
X-1141600Y-3375010D01*
X-1163200Y-3400000D01*
X-1188400Y-3410000D01*
X-1217200Y-3400000D01*
X-1242400Y-3370010D01*
X-1256800Y-3325000D01*
X-1260400Y-3275000D01*
X-1253200Y-3210010D01*
X-1242400Y-3175000D01*
X-1224400Y-3140000D01*
X-1199200Y-3115000D01*
X-1174000Y-3110000D01*
X-1148800Y-3120000D01*
X-1130800Y-3145000D01*
G01X-2285600Y2690000D02*
Y2990000D01*
X-2192000Y2740000D01*
X-2098400Y2990000D01*
Y2690000D01*
G01X-2009200Y2990000D02*
X-1922810D01*
G01X-1966000D02*
Y2690000D01*
G01X-2009200D02*
X-1922810D01*
G01X-1660800Y2965000D02*
X-1682400Y2980000D01*
X-1707600Y2990000D01*
X-1736400D01*
X-1768800Y2974990D01*
X-1794000Y2950000D01*
X-1812000Y2920000D01*
X-1826400Y2870000D01*
X-1830000Y2825000D01*
X-1822800Y2780000D01*
X-1812000Y2750000D01*
X-1790400Y2719990D01*
X-1765200Y2700000D01*
X-1740000Y2690000D01*
X-1714800D01*
X-1689600Y2700000D01*
X-1668000Y2714990D01*
X-1650000Y2734990D01*
G01X-1360000Y2590000D02*
X-1288000Y2990000D01*
G01X-1216000D02*
X-1288000Y2590000D01*
G01X-1396000Y2740000D02*
X-1180000D01*
G01Y2840000D02*
X-1396000D01*
G01X-1130400Y2940000D02*
X-1108800Y2970000D01*
X-1083600Y2985000D01*
X-1054800Y2990000D01*
X-1018800Y2980000D01*
X-993600Y2955000D01*
X-986400Y2925000D01*
X-990000Y2894990D01*
X-1004400Y2870000D01*
X-1076400Y2820000D01*
X-1108800Y2785000D01*
X-1130400Y2734990D01*
X-1137600Y2690000D01*
X-986400D01*
G01X-1310000Y-2538340D02*
G03I-180000J0D01*
G01X-1110400Y-320000D02*
X-1088800Y-290000D01*
X-1063600Y-275000D01*
X-1034800Y-270000D01*
X-998800Y-280000D01*
X-973600Y-305000D01*
X-966400Y-335000D01*
X-970000Y-365010D01*
X-984400Y-390000D01*
X-1056400Y-440000D01*
X-1088800Y-475000D01*
X-1110400Y-525010D01*
X-1117600Y-570000D01*
X-966400D01*
G01X-816000Y-270000D02*
X-844800Y-280000D01*
X-866400Y-305000D01*
X-880800Y-335000D01*
X-891600Y-375010D01*
X-895200Y-420000D01*
X-891600Y-465000D01*
X-880800Y-505000D01*
X-866400Y-535010D01*
X-844800Y-560000D01*
X-816000Y-570000D01*
X-787200Y-560000D01*
X-765600Y-535010D01*
X-751200Y-505000D01*
X-740400Y-465000D01*
X-736800Y-420000D01*
X-740400Y-375010D01*
X-751200Y-335000D01*
X-765600Y-305000D01*
X-787200Y-280000D01*
X-816000Y-270000D01*
G01X-658400Y-320000D02*
X-636800Y-290000D01*
X-611600Y-275000D01*
X-582800Y-270000D01*
X-546800Y-280000D01*
X-521600Y-305000D01*
X-514400Y-335000D01*
X-518000Y-365010D01*
X-532400Y-390000D01*
X-604400Y-440000D01*
X-636800Y-475000D01*
X-658400Y-525010D01*
X-665600Y-570000D01*
X-514400D01*
G01X-364000Y-270000D02*
X-392800Y-280000D01*
X-414400Y-305000D01*
X-428800Y-335000D01*
X-439600Y-375010D01*
X-443200Y-420000D01*
X-439600Y-465000D01*
X-428800Y-505000D01*
X-414400Y-535010D01*
X-392800Y-560000D01*
X-364000Y-570000D01*
X-335200Y-560000D01*
X-313600Y-535010D01*
X-299200Y-505000D01*
X-288400Y-465000D01*
X-284800Y-420000D01*
X-288400Y-375010D01*
X-299200Y-335000D01*
X-313600Y-305000D01*
X-335200Y-280000D01*
X-364000Y-270000D01*
G01X-184800Y-470000D02*
X-91200D01*
G01X88000Y-270000D02*
X59200Y-280000D01*
X37600Y-305000D01*
X23200Y-335000D01*
X12400Y-375010D01*
X8800Y-420000D01*
X12400Y-465000D01*
X23200Y-505000D01*
X37600Y-535010D01*
X59200Y-560000D01*
X88000Y-570000D01*
X116800Y-560000D01*
X138400Y-535010D01*
X152800Y-505000D01*
X163600Y-465000D01*
X167200Y-420000D01*
X163600Y-375010D01*
X152800Y-335000D01*
X138400Y-305000D01*
X116800Y-280000D01*
X88000Y-270000D01*
G01X357200Y-570000D02*
Y-270000D01*
X224000Y-485000D01*
X404000D01*
G01X493200Y-470000D02*
X586800D01*
G01X697600Y-320000D02*
X719200Y-290000D01*
X744400Y-275000D01*
X773200Y-270000D01*
X809200Y-280000D01*
X834400Y-305000D01*
X841600Y-335000D01*
X838000Y-365010D01*
X823600Y-390000D01*
X751600Y-440000D01*
X719200Y-475000D01*
X697600Y-525010D01*
X690400Y-570000D01*
X841600D01*
G01X1035200D02*
Y-270000D01*
X902000Y-485000D01*
X1082000D01*
G01X-1534000Y-930000D02*
X-1516000Y-960010D01*
X-1494400Y-980000D01*
X-1469200Y-990000D01*
X-1440400Y-980000D01*
X-1418800Y-960010D01*
X-1397200Y-930000D01*
X-1390000Y-890000D01*
Y-690000D01*
G01X-1164000Y-990000D02*
X-1308000D01*
Y-690000D01*
X-1164000D01*
G01X-1221600Y-835000D02*
X-1308000D01*
G01X-1085600Y-950010D02*
X-1056800Y-975000D01*
X-1024400Y-990000D01*
X-995600D01*
X-966800Y-975000D01*
X-945200Y-950010D01*
X-934400Y-915000D01*
X-941600Y-880010D01*
X-959600Y-850000D01*
X-992000Y-830000D01*
X-1035200Y-820000D01*
X-1060400Y-800000D01*
X-1071200Y-765000D01*
X-1064000Y-730000D01*
X-1046000Y-705010D01*
X-1020800Y-690000D01*
X-995600D01*
X-970400Y-700000D01*
X-948800Y-725000D01*
G01X-859600Y-950010D02*
X-830800Y-975000D01*
X-798400Y-990000D01*
X-769600D01*
X-740800Y-975000D01*
X-719200Y-950010D01*
X-708400Y-915000D01*
X-715600Y-880010D01*
X-733600Y-850000D01*
X-766000Y-830000D01*
X-809200Y-820000D01*
X-834400Y-800000D01*
X-845200Y-765000D01*
X-838000Y-730000D01*
X-820000Y-705010D01*
X-794800Y-690000D01*
X-769600D01*
X-744400Y-700000D01*
X-722800Y-725000D01*
G01X-486000Y-990000D02*
X-630000D01*
Y-690000D01*
X-486000D01*
G01X-543600Y-835000D02*
X-630000D01*
G01X-178000Y-690000D02*
Y-990000D01*
X-34000D01*
G01X192000D02*
X48000D01*
Y-690000D01*
X192000D01*
G01X134400Y-835000D02*
X48000D01*
G01X346000Y-990000D02*
X317200Y-985000D01*
X292000Y-965010D01*
X270400Y-935000D01*
X256000Y-900000D01*
X248800Y-860000D01*
Y-820000D01*
X256000Y-780000D01*
X270400Y-745000D01*
X292000Y-715000D01*
X317200Y-695000D01*
X346000Y-690000D01*
X374800Y-695000D01*
X400000Y-715000D01*
X421600Y-745000D01*
X436000Y-780000D01*
X443200Y-820000D01*
Y-860000D01*
X436000Y-900000D01*
X421600Y-935000D01*
X400000Y-965010D01*
X374800Y-985000D01*
X346000Y-990000D01*
G01X500000D02*
Y-690000D01*
X586400D01*
X615200Y-705010D01*
X636800Y-740000D01*
X644000Y-780000D01*
X636800Y-820000D01*
X618800Y-850000D01*
X586400Y-865010D01*
X500000D01*
G01X798000Y-990000D02*
X769200Y-985000D01*
X744000Y-965010D01*
X722400Y-935000D01*
X708000Y-900000D01*
X700800Y-860000D01*
Y-820000D01*
X708000Y-780000D01*
X722400Y-745000D01*
X744000Y-715000D01*
X769200Y-695000D01*
X798000Y-690000D01*
X826800Y-695000D01*
X852000Y-715000D01*
X873600Y-745000D01*
X888000Y-780000D01*
X895200Y-820000D01*
Y-860000D01*
X888000Y-900000D01*
X873600Y-935000D01*
X852000Y-965010D01*
X826800Y-985000D01*
X798000Y-990000D01*
G01X952000Y-690000D02*
Y-990000D01*
X1096000D01*
G01X1170800D02*
Y-690000D01*
X1242800D01*
X1271600Y-705010D01*
X1293200Y-725000D01*
X1311200Y-755000D01*
X1325600Y-790010D01*
X1329200Y-840000D01*
X1325600Y-890000D01*
X1311200Y-925000D01*
X1293200Y-955010D01*
X1271600Y-975000D01*
X1242800Y-990000D01*
X1170800D01*
G01X-1432000Y300000D02*
X-1342000Y600000D01*
X-1252000Y300000D01*
G01X-1284400Y405000D02*
X-1399600D01*
G01X-1195200Y300000D02*
Y600000D01*
X-1123200D01*
X-1094400Y584990D01*
X-1072800Y565000D01*
X-1054800Y535000D01*
X-1040400Y499990D01*
X-1036800Y450000D01*
X-1040400Y400000D01*
X-1054800Y365000D01*
X-1072800Y334990D01*
X-1094400Y315000D01*
X-1123200Y300000D01*
X-1195200D01*
G01X-962000D02*
Y600000D01*
X-875600D01*
X-846800Y584990D01*
X-825200Y550000D01*
X-818000Y510000D01*
X-825200Y470000D01*
X-843200Y440000D01*
X-875600Y424990D01*
X-962000D01*
G01X-754000Y300000D02*
X-664000Y600000D01*
X-574000Y300000D01*
G01X-606400Y405000D02*
X-721600D01*
G01X-438000Y600000D02*
Y300000D01*
G01X-520800Y600000D02*
X-355200D01*
G01X-140000Y300000D02*
X-284000D01*
Y600000D01*
X-140000D01*
G01X-197600Y455000D02*
X-284000D01*
G01X-58000Y300000D02*
Y600000D01*
X32000D01*
X60800Y584990D01*
X78800Y565000D01*
X86000Y525000D01*
X78800Y485000D01*
X57200Y460000D01*
X32000Y445000D01*
X-58000D01*
G01X32000D02*
X86000Y300000D01*
G01X376000D02*
X466000Y600000D01*
X556000Y300000D01*
G01X523600Y405000D02*
X408400D01*
G01X620000Y300000D02*
Y600000D01*
X710000D01*
X738800Y584990D01*
X756800Y565000D01*
X764000Y525000D01*
X756800Y485000D01*
X735200Y460000D01*
X710000Y445000D01*
X620000D01*
G01X710000D02*
X764000Y300000D01*
G01X846000D02*
Y600000D01*
X936000D01*
X964800Y584990D01*
X982800Y565000D01*
X990000Y525000D01*
X982800Y485000D01*
X961200Y460000D01*
X936000Y445000D01*
X846000D01*
G01X936000D02*
X990000Y300000D01*
G01X1054000D02*
X1144000Y600000D01*
X1234000Y300000D01*
G01X1201600Y405000D02*
X1086400D01*
G01X1370000Y300000D02*
Y435000D01*
X1298000Y600000D01*
G01X1442000D02*
X1370000Y435000D01*
G01X-1600400Y854990D02*
X-1575200Y890000D01*
X-1553600Y910000D01*
X-1524800Y920000D01*
X-1499600Y910000D01*
X-1481600Y890000D01*
X-1467200Y860000D01*
X-1463600Y825000D01*
X-1467200Y795000D01*
X-1481600Y764990D01*
X-1503200Y740000D01*
X-1528400Y730000D01*
X-1557200Y740000D01*
X-1582400Y769990D01*
X-1596800Y815000D01*
X-1600400Y865000D01*
X-1593200Y929990D01*
X-1582400Y965000D01*
X-1564400Y1000000D01*
X-1539200Y1025000D01*
X-1514000Y1030000D01*
X-1488800Y1020000D01*
X-1470800Y995000D01*
G01X-1352800Y830000D02*
X-1259200D01*
G01X-1159200Y1030000D02*
Y815000D01*
X-1144800Y769990D01*
X-1116000Y740000D01*
X-1080000Y730000D01*
X-1044000Y740000D01*
X-1015200Y769990D01*
X-1000800Y815000D01*
Y1030000D01*
G01X-926000Y730000D02*
Y1030000D01*
X-839600D01*
X-810800Y1014990D01*
X-789200Y980000D01*
X-782000Y940000D01*
X-789200Y900000D01*
X-807200Y870000D01*
X-839600Y854990D01*
X-926000D01*
G01X-495600Y730000D02*
Y1030000D01*
X-402000Y780000D01*
X-308400Y1030000D01*
Y730000D01*
G01X-219200Y1030000D02*
X-132810D01*
G01X-176000D02*
Y730000D01*
G01X-219200D02*
X-132810D01*
G01X129200Y1005000D02*
X107600Y1020000D01*
X82400Y1030000D01*
X53600D01*
X21200Y1014990D01*
X-4000Y990000D01*
X-22000Y960000D01*
X-36400Y910000D01*
X-40000Y865000D01*
X-32800Y820000D01*
X-22000Y790000D01*
X-400Y759990D01*
X24800Y740000D01*
X50000Y730000D01*
X75200D01*
X100400Y740000D01*
X122000Y754990D01*
X140000Y774990D01*
G01X204000Y730000D02*
Y1030000D01*
X294000D01*
X322800Y1014990D01*
X340800Y995000D01*
X348000Y955000D01*
X340800Y915000D01*
X319200Y890000D01*
X294000Y875000D01*
X204000D01*
G01X294000D02*
X348000Y730000D01*
G01X502000D02*
X473200Y735000D01*
X448000Y754990D01*
X426400Y785000D01*
X412000Y820000D01*
X404800Y860000D01*
Y900000D01*
X412000Y940000D01*
X426400Y975000D01*
X448000Y1005000D01*
X473200Y1025000D01*
X502000Y1030000D01*
X530800Y1025000D01*
X556000Y1005000D01*
X577600Y975000D01*
X592000Y940000D01*
X599200Y900000D01*
Y860000D01*
X592000Y820000D01*
X577600Y785000D01*
X556000Y754990D01*
X530800Y735000D01*
X502000Y730000D01*
G01X656000D02*
Y1030000D01*
X742400D01*
X771200Y1014990D01*
X792800Y980000D01*
X800000Y940000D01*
X792800Y900000D01*
X774800Y870000D01*
X742400Y854990D01*
X656000D01*
G01X878400Y730000D02*
Y1030000D01*
G01X1029600D02*
Y730000D01*
G01Y880000D02*
X878400D01*
G01X1180000Y730000D02*
X1151200Y735000D01*
X1126000Y754990D01*
X1104400Y785000D01*
X1090000Y820000D01*
X1082800Y860000D01*
Y900000D01*
X1090000Y940000D01*
X1104400Y975000D01*
X1126000Y1005000D01*
X1151200Y1025000D01*
X1180000Y1030000D01*
X1208800Y1025000D01*
X1234000Y1005000D01*
X1255600Y975000D01*
X1270000Y940000D01*
X1277200Y900000D01*
Y860000D01*
X1270000Y820000D01*
X1255600Y785000D01*
X1234000Y754990D01*
X1208800Y735000D01*
X1180000Y730000D01*
G01X1323200D02*
Y1030000D01*
X1488800Y730000D01*
Y1030000D01*
G01X1704000Y730000D02*
X1560000D01*
Y1030000D01*
X1704000D01*
G01X1646400Y885000D02*
X1560000D01*
G01X-1310000Y2251660D02*
G03I-180000J0D01*
G01X-914000Y-150000D02*
Y150000D01*
X-824000D01*
X-795200Y134990D01*
X-777200Y115000D01*
X-770000Y75000D01*
X-777200Y35000D01*
X-798800Y10000D01*
X-824000Y-5000D01*
X-914000D01*
G01X-824000D02*
X-770000Y-150000D01*
G01X-544000D02*
X-688000D01*
Y150000D01*
X-544000D01*
G01X-601600Y5000D02*
X-688000D01*
G01X-480000Y150000D02*
X-390000Y-150000D01*
X-300000Y150000D01*
G01X-164000Y-160000D02*
X-171200Y-155000D01*
Y-145000D01*
X-164000Y-140000D01*
X-156800Y-145000D01*
Y-155000D01*
X-164000Y-160000D01*
G01X288000Y-150000D02*
Y150000D01*
X244800Y90000D01*
G01Y-150000D02*
X331190D01*
G01X514000Y-160000D02*
X506800Y-155000D01*
Y-145000D01*
X514000Y-140000D01*
X521200Y-145000D01*
Y-155000D01*
X514000Y-160000D01*
G01X740000Y150000D02*
X711200Y140000D01*
X689600Y115000D01*
X675200Y85000D01*
X664400Y44990D01*
X660800Y0D01*
X664400Y-45000D01*
X675200Y-85000D01*
X689600Y-115010D01*
X711200Y-140000D01*
X740000Y-150000D01*
X768800Y-140000D01*
X790400Y-115010D01*
X804800Y-85000D01*
X815600Y-45000D01*
X819200Y0D01*
X815600Y44990D01*
X804800Y85000D01*
X790400Y115000D01*
X768800Y140000D01*
X740000Y150000D01*
G01X1124400Y-3010000D02*
Y-2710000D01*
X1218000Y-2960000D01*
X1311600Y-2710000D01*
Y-3010000D01*
G01X1400800Y-2710000D02*
X1487190D01*
G01X1444000D02*
Y-3010000D01*
G01X1400800D02*
X1487190D01*
G01X1749200Y-2735000D02*
X1727600Y-2720000D01*
X1702400Y-2710000D01*
X1673600D01*
X1641200Y-2725010D01*
X1616000Y-2750000D01*
X1598000Y-2780000D01*
X1583600Y-2830000D01*
X1580000Y-2875000D01*
X1587200Y-2920000D01*
X1598000Y-2950000D01*
X1619600Y-2980010D01*
X1644800Y-3000000D01*
X1670000Y-3010000D01*
X1695200D01*
X1720400Y-3000000D01*
X1742000Y-2985010D01*
X1760000Y-2965010D01*
G01X2050000Y-3110000D02*
X2122000Y-2710000D01*
G01X2194000D02*
X2122000Y-3110000D01*
G01X2014000Y-2960000D02*
X2230000D01*
G01Y-2860000D02*
X2014000D01*
G01X2268800Y-2965010D02*
X2290400Y-2990000D01*
X2315600Y-3005000D01*
X2348000Y-3010000D01*
X2380400Y-3000000D01*
X2405600Y-2980010D01*
X2423600Y-2945000D01*
X2427200Y-2905000D01*
X2420000Y-2865000D01*
X2402000Y-2840000D01*
X2376800Y-2820000D01*
X2351600Y-2815010D01*
X2326400Y-2820000D01*
X2294000Y-2840000D01*
X2304800Y-2710000D01*
X2402000D01*
G01X1134400Y3000000D02*
Y3300000D01*
X1228000Y3050000D01*
X1321600Y3300000D01*
Y3000000D01*
G01X1410800Y3300000D02*
X1497190D01*
G01X1454000D02*
Y3000000D01*
G01X1410800D02*
X1497190D01*
G01X1759200Y3275000D02*
X1737600Y3290000D01*
X1712400Y3300000D01*
X1683600D01*
X1651200Y3284990D01*
X1626000Y3260000D01*
X1608000Y3230000D01*
X1593600Y3180000D01*
X1590000Y3135000D01*
X1597200Y3090000D01*
X1608000Y3060000D01*
X1629600Y3029990D01*
X1654800Y3010000D01*
X1680000Y3000000D01*
X1705200D01*
X1730400Y3010000D01*
X1752000Y3024990D01*
X1770000Y3044990D01*
G01X2060000Y2900000D02*
X2132000Y3300000D01*
G01X2204000D02*
X2132000Y2900000D01*
G01X2024000Y3050000D02*
X2240000D01*
G01Y3150000D02*
X2024000D01*
G01X2278800Y3060000D02*
X2300400Y3024990D01*
X2329200Y3005000D01*
X2361600Y3000000D01*
X2390400Y3005000D01*
X2419200Y3029990D01*
X2437200Y3060000D01*
X2440800Y3090000D01*
X2433600Y3124990D01*
X2408400Y3150000D01*
X2383200Y3160000D01*
X2350800D01*
G01X2383200D02*
X2404800Y3175000D01*
X2422800Y3199990D01*
X2430000Y3230000D01*
X2422800Y3260000D01*
X2404800Y3284990D01*
X2372400Y3300000D01*
X2340000Y3295000D01*
X2307600Y3275000D01*
G01X2644400Y280000D02*
Y580000D01*
X2738000Y330000D01*
X2831600Y580000D01*
Y280000D01*
G01X2920800Y580000D02*
X3007190D01*
G01X2964000D02*
Y280000D01*
G01X2920800D02*
X3007190D01*
G01X3269200Y555000D02*
X3247600Y570000D01*
X3222400Y580000D01*
X3193600D01*
X3161200Y564990D01*
X3136000Y540000D01*
X3118000Y510000D01*
X3103600Y460000D01*
X3100000Y415000D01*
X3107200Y370000D01*
X3118000Y340000D01*
X3139600Y309990D01*
X3164800Y290000D01*
X3190000Y280000D01*
X3215200D01*
X3240400Y290000D01*
X3262000Y304990D01*
X3280000Y324990D01*
G01X3570000Y180000D02*
X3642000Y580000D01*
G01X3714000D02*
X3642000Y180000D01*
G01X3534000Y330000D02*
X3750000D01*
G01Y430000D02*
X3534000D01*
G01X3911200Y280000D02*
Y580000D01*
X3778000Y365000D01*
X3958000D01*
G01X3290000Y2801660D02*
G03I-180000J0D01*
G01X3965000Y-106000D02*
X4265000D01*
Y-192400D01*
X4249990Y-221200D01*
X4215000Y-242800D01*
X4175000Y-250000D01*
X4135000Y-242800D01*
X4105000Y-224800D01*
X4089990Y-192400D01*
Y-106000D01*
G01X3965000Y-404000D02*
X3970000Y-375200D01*
X3989990Y-350000D01*
X4020000Y-328400D01*
X4055000Y-314000D01*
X4095000Y-306800D01*
X4135000D01*
X4175000Y-314000D01*
X4210000Y-328400D01*
X4240000Y-350000D01*
X4260000Y-375200D01*
X4265000Y-404000D01*
X4260000Y-432800D01*
X4240000Y-458000D01*
X4210000Y-479600D01*
X4175000Y-494000D01*
X4135000Y-501200D01*
X4095000D01*
X4055000Y-494000D01*
X4020000Y-479600D01*
X3989990Y-458000D01*
X3970000Y-432800D01*
X3965000Y-404000D01*
G01X4265000Y-522000D02*
X3965000Y-572400D01*
X4265000Y-630000D01*
X3965000Y-687600D01*
X4265000Y-738000D01*
G01X3965000Y-928000D02*
Y-784000D01*
X4265000D01*
Y-928000D01*
G01X4120000Y-870400D02*
Y-784000D01*
G01X3965000Y-1010000D02*
X4265000D01*
Y-1100000D01*
X4249990Y-1128800D01*
X4230000Y-1146800D01*
X4190000Y-1154000D01*
X4150000Y-1146800D01*
X4125000Y-1125200D01*
X4110000Y-1100000D01*
Y-1010000D01*
G01Y-1100000D02*
X3965000Y-1154000D01*
G01X4275000Y100000D02*
X3875000D01*
Y-1300000D01*
X4275000D01*
G54D12*
G01X-4005020Y-2625000D02*
Y-2474900D01*
X-3963200Y-2599980D01*
X-3921380Y-2474900D01*
Y-2625000D01*
G01X-3875580D02*
Y-2474900D01*
G01X-3808020D02*
Y-2625000D01*
G01Y-2549950D02*
X-3875580D01*
G01X-3720400Y-2625000D02*
Y-2474900D01*
X-3739700Y-2504920D01*
G01Y-2625000D02*
X-3701100D01*
G01X-3589350Y-2549950D02*
X-3557180D01*
Y-2594980D01*
X-3566830Y-2609990D01*
X-3578090Y-2620000D01*
X-3594170Y-2625000D01*
X-3610260Y-2620000D01*
X-3621520Y-2609990D01*
X-3631170Y-2594980D01*
X-3637600Y-2577470D01*
X-3640820Y-2557460D01*
Y-2539940D01*
X-3637600Y-2524940D01*
X-3631170Y-2507420D01*
X-3621520Y-2492410D01*
X-3611870Y-2482410D01*
X-3599000Y-2474900D01*
X-3587740D01*
X-3574880Y-2479900D01*
X-3565220Y-2489910D01*
G01X-3514590Y-2625000D02*
Y-2474900D01*
X-3440610Y-2625000D01*
Y-2474900D01*
G01X-3391580Y-2625000D02*
Y-2474900D01*
X-3359420D01*
X-3346550Y-2482410D01*
X-3336900Y-2492410D01*
X-3328860Y-2507420D01*
X-3322420Y-2524940D01*
X-3320820Y-2549950D01*
X-3322420Y-2574970D01*
X-3328860Y-2592480D01*
X-3336900Y-2607490D01*
X-3346550Y-2617500D01*
X-3359420Y-2625000D01*
X-3391580D01*
G01X-4173620Y-1845000D02*
Y-1694900D01*
X-4131800Y-1819980D01*
X-4089980Y-1694900D01*
Y-1845000D01*
G01X-4044180D02*
Y-1694900D01*
G01X-3976620D02*
Y-1845000D01*
G01Y-1769950D02*
X-4044180D01*
G01X-3889000Y-1845000D02*
Y-1694900D01*
X-3908300Y-1724920D01*
G01Y-1845000D02*
X-3869700D01*
G01X-3799770D02*
Y-1694900D01*
X-3761170D01*
X-3748300Y-1702410D01*
X-3738650Y-1719920D01*
X-3735430Y-1739930D01*
X-3738650Y-1759940D01*
X-3746690Y-1774950D01*
X-3761170Y-1782460D01*
X-3799770D01*
G01X-4250800Y-869660D02*
X-4100700D01*
X-4225780Y-911480D01*
X-4100700Y-953300D01*
X-4250800D01*
G01Y-1032880D02*
X-4248300Y-1020010D01*
X-4238290Y-1008760D01*
X-4223280Y-999100D01*
X-4205770Y-992670D01*
X-4185760Y-989450D01*
X-4165740D01*
X-4145730Y-992670D01*
X-4128220Y-999100D01*
X-4113210Y-1008760D01*
X-4103200Y-1020010D01*
X-4100700Y-1032880D01*
X-4103200Y-1045750D01*
X-4113210Y-1057000D01*
X-4128220Y-1066660D01*
X-4145730Y-1073090D01*
X-4165740Y-1076310D01*
X-4185760D01*
X-4205770Y-1073090D01*
X-4223280Y-1066660D01*
X-4238290Y-1057000D01*
X-4248300Y-1045750D01*
X-4250800Y-1032880D01*
G01Y-1117290D02*
X-4100700D01*
X-4250800Y-1191270D01*
X-4100700D01*
G01X-4250800Y-1275680D02*
X-4248300Y-1262810D01*
X-4238290Y-1251560D01*
X-4223280Y-1241900D01*
X-4205770Y-1235470D01*
X-4185760Y-1232250D01*
X-4165740D01*
X-4145730Y-1235470D01*
X-4128220Y-1241900D01*
X-4113210Y-1251560D01*
X-4103200Y-1262810D01*
X-4100700Y-1275680D01*
X-4103200Y-1288550D01*
X-4113210Y-1299800D01*
X-4128220Y-1309460D01*
X-4145730Y-1315890D01*
X-4165740Y-1319110D01*
X-4185760D01*
X-4205770Y-1315890D01*
X-4223280Y-1309460D01*
X-4238290Y-1299800D01*
X-4248300Y-1288550D01*
X-4250800Y-1275680D01*
G01X-3717520Y-1485990D02*
X-3727170Y-1478480D01*
X-3738420Y-1473480D01*
X-3751290D01*
X-3765770Y-1480990D01*
X-3777020Y-1493490D01*
X-3785070Y-1508510D01*
X-3791500Y-1533520D01*
X-3793110Y-1556040D01*
X-3789890Y-1578550D01*
X-3785070Y-1593560D01*
X-3775420Y-1608570D01*
X-3764160Y-1618580D01*
X-3752900Y-1623580D01*
X-3741640D01*
X-3730380Y-1618580D01*
X-3720730Y-1611070D01*
X-3712690Y-1601070D01*
G01X-3631500Y-1623580D02*
X-3644370Y-1621080D01*
X-3655620Y-1611070D01*
X-3665280Y-1596060D01*
X-3671710Y-1578550D01*
X-3674930Y-1558540D01*
Y-1538520D01*
X-3671710Y-1518510D01*
X-3665280Y-1501000D01*
X-3655620Y-1485990D01*
X-3644370Y-1475980D01*
X-3631500Y-1473480D01*
X-3618630Y-1475980D01*
X-3607380Y-1485990D01*
X-3597720Y-1501000D01*
X-3591290Y-1518510D01*
X-3588070Y-1538520D01*
Y-1558540D01*
X-3591290Y-1578550D01*
X-3597720Y-1596060D01*
X-3607380Y-1611070D01*
X-3618630Y-1621080D01*
X-3631500Y-1623580D01*
G01X-3547090D02*
Y-1473480D01*
X-3473110Y-1623580D01*
Y-1473480D01*
G01X-3388700Y-1623580D02*
Y-1473480D01*
X-3408000Y-1503500D01*
G01Y-1623580D02*
X-3369400D01*
G01X-4287000Y2181180D02*
X-4157010Y2256230D01*
X-4244430Y2157470D01*
X-4115200Y2183800D01*
X-4245190Y2108750D01*
G01X-4222280Y2069070D02*
X-4092290Y2144120D01*
G01X-4058520Y2085620D02*
X-4188510Y2010570D01*
G01X-4123510Y2048100D02*
X-4157290Y2106600D01*
G01X-4051650Y2023690D02*
X-4033830Y2022840D01*
X-4021700Y2016840D01*
X-4013100Y2006950D01*
X-4009390Y1990520D01*
X-4014590Y1974510D01*
X-4025980Y1964220D01*
X-4039790Y1958110D01*
X-4053840Y1957430D01*
X-4091580Y1972780D01*
X-4113990Y1976560D01*
X-4140480Y1972400D01*
X-4161580Y1963930D01*
X-4127810Y1905430D01*
G01X-4014180Y1858710D02*
X-3998090Y1830850D01*
X-4037090Y1808340D01*
X-4054920Y1809190D01*
X-4069210Y1813940D01*
X-4081580Y1825370D01*
X-4085290Y1841790D01*
X-4082260Y1856550D01*
X-4074080Y1872410D01*
X-4062130Y1886740D01*
X-4046410Y1899530D01*
X-4031240Y1908290D01*
X-4016640Y1913010D01*
X-3998250Y1916190D01*
X-3980430Y1915340D01*
X-3966940Y1911980D01*
X-3954010Y1904600D01*
X-3948380Y1894850D01*
X-3946270Y1881200D01*
X-3950120Y1867840D01*
G01X-4041790Y1756440D02*
X-3911800Y1831490D01*
X-4004800Y1692370D01*
X-3874810Y1767420D01*
G01X-3980290Y1649910D02*
X-3850300Y1724960D01*
X-3834210Y1697100D01*
X-3834280Y1682200D01*
X-3838120Y1668840D01*
X-3847100Y1654370D01*
X-3859050Y1640050D01*
X-3879910Y1626150D01*
X-3902380Y1615030D01*
X-3920760Y1611840D01*
X-3937780Y1611300D01*
X-3951270Y1614660D01*
X-3964200Y1622050D01*
X-3980290Y1649910D01*
G01X-3817350Y1873940D02*
X-3687360Y1948990D01*
X-3774780Y1850230D01*
X-3645550Y1876560D01*
X-3775540Y1801510D01*
G01X-3752630Y1761830D02*
X-3622640Y1836880D01*
G01X-3588870Y1778380D02*
X-3718860Y1703330D01*
G01X-3653860Y1740860D02*
X-3687640Y1799360D01*
G01X-3582000Y1716450D02*
X-3564180Y1715600D01*
X-3552050Y1709600D01*
X-3543450Y1699710D01*
X-3539740Y1683280D01*
X-3544940Y1667270D01*
X-3556330Y1656980D01*
X-3570140Y1650870D01*
X-3584190Y1650190D01*
X-3621930Y1665540D01*
X-3644340Y1669320D01*
X-3670830Y1665160D01*
X-3691930Y1656690D01*
X-3658160Y1598190D01*
G01X-3538580Y1551190D02*
X-3528870Y1549370D01*
X-3515630Y1551440D01*
X-3498850Y1557410D01*
X-3487460Y1567710D01*
X-3482010Y1578280D01*
X-3481140Y1591780D01*
X-3502850Y1629390D01*
X-3632840Y1554340D01*
X-3606300Y1508370D01*
X-3592010Y1503630D01*
X-3575790Y1505560D01*
X-3559020Y1511530D01*
X-3545460Y1523070D01*
X-3537290Y1538940D01*
X-3538580Y1551190D01*
X-3563510Y1594370D01*
G01X-3433300Y1508930D02*
X-3414010Y1475500D01*
G01X-3423660Y1492220D02*
X-3553650Y1417170D01*
G01X-3563300Y1433880D02*
X-3544000Y1400450D01*
G01X-3513050Y1346850D02*
X-3362960Y1387080D01*
X-3472840Y1277200D01*
G01X-3434580Y1316010D02*
X-3460320Y1360580D01*
G01X-3431800Y1246140D02*
X-3436200Y1228740D01*
X-3435460Y1212460D01*
X-3429030Y1201310D01*
X-3416100Y1193920D01*
X-3400440Y1191820D01*
X-3382860Y1196400D01*
X-3369300Y1207940D01*
X-3360330Y1222410D01*
X-3358900Y1239950D01*
X-3364210Y1259160D01*
X-3361180Y1273910D01*
X-3348420Y1286850D01*
X-3331650Y1292820D01*
X-3316800Y1292110D01*
X-3304670Y1286110D01*
X-3299040Y1276360D01*
X-3297740Y1264110D01*
X-3303750Y1249500D01*
G01X-3686490Y2686050D02*
X-3556500Y2761100D01*
X-3643920Y2662340D01*
X-3514690Y2688670D01*
X-3644680Y2613620D01*
G01X-3621770Y2573940D02*
X-3491780Y2648990D01*
G01X-3458010Y2590490D02*
X-3588000Y2515440D01*
G01X-3523000Y2552970D02*
X-3556780Y2611470D01*
G01X-3451140Y2528560D02*
X-3433320Y2527710D01*
X-3421190Y2521710D01*
X-3412590Y2511820D01*
X-3408880Y2495390D01*
X-3414080Y2479380D01*
X-3425470Y2469090D01*
X-3439280Y2462980D01*
X-3453330Y2462300D01*
X-3491070Y2477650D01*
X-3513480Y2481430D01*
X-3539970Y2477270D01*
X-3561070Y2468800D01*
X-3527300Y2410300D01*
G01X-3499570Y2362270D02*
X-3369580Y2437320D01*
X-3350280Y2403890D01*
X-3350350Y2389000D01*
X-3360680Y2371880D01*
X-3376410Y2359090D01*
X-3395350Y2351870D01*
X-3412370Y2351330D01*
X-3426110Y2360110D01*
X-3445410Y2393540D01*
G01X-3515720Y-2395000D02*
Y-2244900D01*
X-3473900Y-2369980D01*
X-3432080Y-2244900D01*
Y-2395000D01*
G01X-3386280D02*
Y-2244900D01*
G01X-3318720D02*
Y-2395000D01*
G01Y-2319950D02*
X-3386280D01*
G01X-3231100Y-2395000D02*
Y-2244900D01*
X-3250400Y-2274920D01*
G01Y-2395000D02*
X-3211800D01*
G01X-3096830Y-2314950D02*
X-3090400Y-2307440D01*
X-3085580Y-2294940D01*
X-3082360Y-2277420D01*
X-3085580Y-2262410D01*
X-3092010Y-2252410D01*
X-3103270Y-2244900D01*
X-3146690D01*
Y-2395000D01*
X-3093620D01*
X-3082360Y-2385000D01*
X-3075920Y-2369980D01*
X-3072710Y-2352470D01*
X-3075920Y-2334960D01*
X-3085580Y-2319950D01*
X-3096830Y-2314950D01*
X-3146690D01*
G01X-3007600Y-2244900D02*
X-2969000D01*
G01X-2988300D02*
Y-2395000D01*
G01X-3007600D02*
X-2969000D01*
G01X-2907110D02*
X-2866900Y-2244900D01*
X-2826690Y-2395000D01*
G01X-2841170Y-2342470D02*
X-2892640D01*
G01X-2779280Y-2374990D02*
X-2766410Y-2387500D01*
X-2751930Y-2395000D01*
X-2739070D01*
X-2726200Y-2387500D01*
X-2716550Y-2374990D01*
X-2711720Y-2357470D01*
X-2714940Y-2339970D01*
X-2722980Y-2324950D01*
X-2737460Y-2314950D01*
X-2756760Y-2309940D01*
X-2768020Y-2299940D01*
X-2772840Y-2282430D01*
X-2769620Y-2264910D01*
X-2761580Y-2252410D01*
X-2750330Y-2244900D01*
X-2739070D01*
X-2727810Y-2249900D01*
X-2718160Y-2262410D01*
G01X-3513620Y-2085000D02*
Y-1934900D01*
X-3471800Y-2059980D01*
X-3429980Y-1934900D01*
Y-2085000D01*
G01X-3384180D02*
Y-1934900D01*
G01X-3316620D02*
Y-2085000D01*
G01Y-2009950D02*
X-3384180D01*
G01X-3229000Y-2085000D02*
Y-1934900D01*
X-3248300Y-1964920D01*
G01Y-2085000D02*
X-3209700D01*
G01X-3144590D02*
Y-1934900D01*
X-3070610Y-2085000D01*
Y-1934900D01*
G01X-3566490Y2006240D02*
X-3436500Y2081290D01*
X-3523920Y1982530D01*
X-3394690Y2008860D01*
X-3524680Y1933810D01*
G01X-3501770Y1894130D02*
X-3371780Y1969180D01*
G01X-3338010Y1910680D02*
X-3468000Y1835630D01*
G01X-3403000Y1873160D02*
X-3436780Y1931660D01*
G01X-3331140Y1848750D02*
X-3313320Y1847900D01*
X-3301190Y1841900D01*
X-3292590Y1832010D01*
X-3288880Y1815580D01*
X-3294080Y1799570D01*
X-3305470Y1789280D01*
X-3319280Y1783170D01*
X-3333330Y1782490D01*
X-3371070Y1797840D01*
X-3393480Y1801620D01*
X-3419970Y1797460D01*
X-3441070Y1788990D01*
X-3407300Y1730490D01*
G01X-3381980Y1686640D02*
X-3251990Y1761690D01*
X-3344990Y1622570D01*
X-3215000Y1697620D01*
G01X-3141320Y2458790D02*
X-3139640Y2470900D01*
X-3140940Y2483150D01*
X-3147370Y2494290D01*
X-3161110Y2503070D01*
X-3177570Y2506570D01*
X-3194590Y2506030D01*
X-3219470Y2499090D01*
X-3239770Y2489230D01*
X-3257660Y2475180D01*
X-3268250Y2463500D01*
X-3276430Y2447640D01*
X-3279460Y2432880D01*
X-3278170Y2420640D01*
X-3272540Y2410890D01*
X-3262570Y2403640D01*
X-3251250Y2399030D01*
X-3238570Y2397070D01*
G01X-3217470Y2315500D02*
X-3221730Y2327890D01*
X-3218700Y2342640D01*
X-3210520Y2358500D01*
X-3198570Y2372830D01*
X-3182850Y2385620D01*
X-3165520Y2395630D01*
X-3146580Y2402850D01*
X-3128190Y2406040D01*
X-3110370Y2405180D01*
X-3096070Y2400440D01*
X-3087480Y2390550D01*
X-3083210Y2378150D01*
X-3086250Y2363400D01*
X-3094420Y2347540D01*
X-3106370Y2333210D01*
X-3122090Y2320410D01*
X-3139420Y2310410D01*
X-3158360Y2303190D01*
X-3176750Y2300000D01*
X-3194570Y2300850D01*
X-3208870Y2305600D01*
X-3217470Y2315500D01*
G01X-3175260Y2242390D02*
X-3045270Y2317440D01*
X-3138270Y2178320D01*
X-3008280Y2253370D01*
G01X-3003020Y2194220D02*
X-2985200Y2193370D01*
X-2973070Y2187370D01*
X-2964470Y2177480D01*
X-2960760Y2161050D01*
X-2965960Y2145040D01*
X-2977350Y2134750D01*
X-2991160Y2128640D01*
X-3005210Y2127960D01*
X-3042950Y2143310D01*
X-3065360Y2147090D01*
X-3091850Y2142930D01*
X-3112950Y2134460D01*
X-3079180Y2075960D01*
G01X-2878550Y3246470D02*
X-2803500Y3116480D01*
X-2902260Y3203900D01*
X-2875930Y3074670D01*
X-2950980Y3204660D01*
G01X-3019900Y3164870D02*
X-3007510Y3169130D01*
X-2992760Y3166100D01*
X-2976900Y3157920D01*
X-2962570Y3145970D01*
X-2949780Y3130250D01*
X-2939770Y3112920D01*
X-2932550Y3093980D01*
X-2929360Y3075590D01*
X-2930220Y3057770D01*
X-2934960Y3043470D01*
X-2944850Y3034880D01*
X-2957250Y3030610D01*
X-2972000Y3033650D01*
X-2987860Y3041820D01*
X-3002190Y3053770D01*
X-3014990Y3069490D01*
X-3024990Y3086820D01*
X-3032210Y3105760D01*
X-3035400Y3124150D01*
X-3034550Y3141970D01*
X-3029800Y3156270D01*
X-3019900Y3164870D01*
G01X-3093010Y3122660D02*
X-3017960Y2992670D01*
X-3157080Y3085670D01*
X-3082030Y2955680D01*
G01X-3230180Y3043470D02*
X-3217790Y3047730D01*
X-3203040Y3044700D01*
X-3187180Y3036520D01*
X-3172850Y3024570D01*
X-3160060Y3008850D01*
X-3150050Y2991520D01*
X-3142830Y2972580D01*
X-3139640Y2954190D01*
X-3140500Y2936370D01*
X-3145240Y2922070D01*
X-3155130Y2913480D01*
X-3167530Y2909210D01*
X-3182280Y2912250D01*
X-3198140Y2920420D01*
X-3212470Y2932370D01*
X-3225270Y2948090D01*
X-3235270Y2965420D01*
X-3242490Y2984360D01*
X-3245680Y3002750D01*
X-3244830Y3020570D01*
X-3240080Y3034870D01*
X-3230180Y3043470D01*
G01X-1372250Y-4116140D02*
X-1297200Y-3986150D01*
X-1323530Y-4115380D01*
X-1224770Y-4027960D01*
X-1299820Y-4157950D01*
G01X-1230900Y-4197740D02*
X-1240790Y-4189140D01*
X-1245530Y-4174850D01*
X-1246390Y-4157030D01*
X-1243200Y-4138640D01*
X-1235980Y-4119700D01*
X-1225970Y-4102370D01*
X-1213180Y-4086650D01*
X-1198850Y-4074700D01*
X-1182990Y-4066530D01*
X-1168240Y-4063490D01*
X-1155850Y-4067750D01*
X-1145950Y-4076350D01*
X-1141210Y-4090650D01*
X-1140350Y-4108470D01*
X-1143540Y-4126860D01*
X-1150760Y-4145800D01*
X-1160760Y-4163130D01*
X-1173560Y-4178850D01*
X-1187890Y-4190800D01*
X-1203750Y-4198980D01*
X-1218500Y-4202010D01*
X-1230900Y-4197740D01*
G01X-1157790Y-4239950D02*
X-1082740Y-4109960D01*
X-1093720Y-4276940D01*
X-1018670Y-4146950D01*
G01X-1020620Y-4319140D02*
X-1030510Y-4310540D01*
X-1035250Y-4296250D01*
X-1036110Y-4278430D01*
X-1032920Y-4260040D01*
X-1025700Y-4241100D01*
X-1015690Y-4223770D01*
X-1002900Y-4208050D01*
X-988570Y-4196100D01*
X-972710Y-4187930D01*
X-957960Y-4184890D01*
X-945570Y-4189150D01*
X-935670Y-4197750D01*
X-930930Y-4212050D01*
X-930070Y-4229870D01*
X-933260Y-4248260D01*
X-940480Y-4267200D01*
X-950480Y-4284530D01*
X-963280Y-4300250D01*
X-977610Y-4312200D01*
X-993470Y-4320380D01*
X-1008220Y-4323410D01*
X-1020620Y-4319140D01*
G01X42880Y-4101240D02*
X-87110Y-4026190D01*
X42120Y-4052520D01*
X-45300Y-3953760D01*
X84690Y-4028810D01*
G01X107600Y-3989130D02*
X-22390Y-3914080D01*
G01X11380Y-3855580D02*
X141370Y-3930630D01*
G01X76380Y-3893110D02*
X42600Y-3951610D01*
G01X115750Y-3849940D02*
X106210Y-3831430D01*
X102370Y-3818070D01*
X104470Y-3804430D01*
X114430Y-3797180D01*
X127110Y-3795220D01*
X143330Y-3797150D01*
X159300Y-3804510D01*
X171500Y-3813410D01*
X181280Y-3826490D01*
X187290Y-3841100D01*
X185990Y-3853350D01*
X175220Y-3861990D01*
X156600Y-3864240D01*
X133880Y-3858550D01*
X111410Y-3847440D01*
X84860Y-3828390D01*
X72100Y-3815450D01*
X60960Y-3799740D01*
X55750Y-3783730D01*
X59220Y-3772730D01*
X69180Y-3765480D01*
X84030Y-3764770D01*
G01X227390Y-3781640D02*
X97400Y-3706590D01*
X264380Y-3717570D01*
X134390Y-3642520D01*
G01X-477120Y-4531050D02*
X-607110Y-4456000D01*
X-477880Y-4482330D01*
X-565300Y-4383570D01*
X-435310Y-4458620D01*
G01X-412400Y-4418940D02*
X-542390Y-4343890D01*
G01X-508620Y-4285390D02*
X-378630Y-4360440D01*
G01X-443620Y-4322920D02*
X-477400Y-4381420D01*
G01X-404250Y-4279750D02*
X-413790Y-4261240D01*
X-417630Y-4247880D01*
X-415530Y-4234240D01*
X-405570Y-4226990D01*
X-392890Y-4225030D01*
X-376670Y-4226960D01*
X-360700Y-4234320D01*
X-348500Y-4243220D01*
X-338720Y-4256300D01*
X-332710Y-4270910D01*
X-334010Y-4283160D01*
X-344780Y-4291800D01*
X-363400Y-4294050D01*
X-386120Y-4288360D01*
X-408590Y-4277250D01*
X-435140Y-4258200D01*
X-447900Y-4245260D01*
X-459040Y-4229550D01*
X-464250Y-4213540D01*
X-460780Y-4202540D01*
X-450820Y-4195290D01*
X-435970Y-4194580D01*
G01X-290200Y-4207270D02*
X-420190Y-4132220D01*
X-400890Y-4098790D01*
X-387950Y-4091400D01*
X-367970Y-4091800D01*
X-349030Y-4099020D01*
X-333300Y-4111810D01*
X-324320Y-4126280D01*
X-325060Y-4142570D01*
X-344360Y-4176000D01*
G01X-566200Y-3964780D02*
X-577530Y-3969380D01*
X-587490Y-3976630D01*
X-593920Y-3987770D01*
X-594660Y-4004060D01*
X-589460Y-4020060D01*
X-580480Y-4034530D01*
X-562030Y-4052620D01*
X-543340Y-4065270D01*
X-522230Y-4073730D01*
X-506820Y-4077060D01*
X-488990Y-4076210D01*
X-474700Y-4071460D01*
X-464740Y-4064220D01*
X-459110Y-4054470D01*
X-457810Y-4042210D01*
X-459480Y-4030100D01*
X-464120Y-4018140D01*
G01X-404040Y-3959080D02*
X-412640Y-3968970D01*
X-426930Y-3973710D01*
X-444750Y-3974570D01*
X-463140Y-3971380D01*
X-482080Y-3964160D01*
X-499410Y-3954150D01*
X-515130Y-3941360D01*
X-527080Y-3927030D01*
X-535250Y-3911170D01*
X-538290Y-3896420D01*
X-534030Y-3884030D01*
X-525430Y-3874130D01*
X-511130Y-3869390D01*
X-493310Y-3868530D01*
X-474920Y-3871720D01*
X-455980Y-3878940D01*
X-438650Y-3888940D01*
X-422930Y-3901740D01*
X-410980Y-3916070D01*
X-402800Y-3931930D01*
X-399770Y-3946680D01*
X-404040Y-3959080D01*
G01X-361830Y-3885970D02*
X-491820Y-3810920D01*
X-324840Y-3821900D01*
X-454830Y-3746850D01*
G01X-352070Y-3743990D02*
X-361610Y-3725480D01*
X-365450Y-3712120D01*
X-363350Y-3698480D01*
X-353390Y-3691230D01*
X-340710Y-3689270D01*
X-324490Y-3691200D01*
X-308520Y-3698560D01*
X-296320Y-3707460D01*
X-286540Y-3720540D01*
X-280530Y-3735150D01*
X-281830Y-3747400D01*
X-292600Y-3756040D01*
X-311220Y-3758290D01*
X-333940Y-3752600D01*
X-356410Y-3741490D01*
X-382960Y-3722440D01*
X-395720Y-3709500D01*
X-406860Y-3693790D01*
X-412070Y-3677780D01*
X-408600Y-3666780D01*
X-398640Y-3659530D01*
X-383790Y-3658820D01*
G01X-167120Y3628760D02*
X-297110Y3703810D01*
X-167880Y3677480D01*
X-255300Y3776240D01*
X-125310Y3701190D01*
G01X-102400Y3740870D02*
X-232390Y3815920D01*
G01X-198620Y3874420D02*
X-68630Y3799370D01*
G01X-133620Y3836890D02*
X-167400Y3778390D01*
G01X-68500Y3859620D02*
X-48510Y3859220D01*
X-33420Y3865360D01*
X-24010Y3876650D01*
X-19740Y3889040D01*
X-24140Y3906440D01*
X-33120Y3920910D01*
X-45320Y3929810D01*
X-62090Y3935770D01*
X-78550Y3932280D01*
X-88520Y3925030D01*
X-95750Y3912500D01*
G01X-88520Y3925030D02*
X-90190Y3937140D01*
X-97000Y3950360D01*
X-108390Y3960650D01*
X-123000Y3965370D01*
X-137850Y3964660D01*
X-151590Y3955880D01*
X-156660Y3942090D01*
X-155230Y3924550D01*
G01X17390Y3948360D02*
X-112600Y4023410D01*
X54380Y4012430D01*
X-75610Y4087480D01*
G01X-598360Y3491060D02*
X-728350Y3566110D01*
X-599120Y3539780D01*
X-686540Y3638540D01*
X-556550Y3563490D01*
G01X-533640Y3603170D02*
X-663630Y3678220D01*
G01X-629860Y3736720D02*
X-499870Y3661670D01*
G01X-564860Y3699190D02*
X-598640Y3640690D01*
G01X-499740Y3721920D02*
X-479750Y3721520D01*
X-464660Y3727660D01*
X-455250Y3738950D01*
X-450980Y3751340D01*
X-455380Y3768740D01*
X-464360Y3783210D01*
X-476560Y3792110D01*
X-493330Y3798070D01*
X-509790Y3794580D01*
X-519760Y3787330D01*
X-526990Y3774800D01*
G01X-519760Y3787330D02*
X-521430Y3799440D01*
X-528240Y3812660D01*
X-539630Y3822950D01*
X-554240Y3827670D01*
X-569090Y3826960D01*
X-582830Y3818180D01*
X-587900Y3804390D01*
X-586470Y3786850D01*
G01X-458250Y3893860D02*
X-461530Y3903190D01*
X-469950Y3913620D01*
X-483510Y3925170D01*
X-498120Y3929880D01*
X-510000Y3929310D01*
X-522130Y3923320D01*
X-543840Y3885710D01*
X-413850Y3810660D01*
X-387310Y3856630D01*
X-390350Y3871380D01*
X-400130Y3884450D01*
X-413690Y3896000D01*
X-430460Y3901960D01*
X-448290Y3901110D01*
X-458250Y3893860D01*
X-483180Y3850690D01*
G01X-474300Y4006170D02*
X-455000Y4039600D01*
G01X-464650Y4022880D02*
X-334660Y3947830D01*
G01X-344310Y3931120D02*
X-325010Y3964550D01*
G01X-294060Y4018150D02*
X-403950Y4128020D01*
X-253850Y4087800D01*
G01X-306580Y4101530D02*
X-332320Y4056950D01*
G01X-247470Y4138870D02*
X-230210Y4143760D01*
X-216470Y4152540D01*
X-210040Y4163690D01*
X-210100Y4178580D01*
X-216110Y4193190D01*
X-228870Y4206130D01*
X-245640Y4212100D01*
X-262660Y4212640D01*
X-278560Y4205110D01*
X-292550Y4190890D01*
X-306840Y4186150D01*
X-324420Y4190720D01*
X-337980Y4202270D01*
X-344790Y4215480D01*
X-345660Y4228990D01*
X-340030Y4238740D01*
X-330070Y4245990D01*
X-314410Y4248090D01*
G01X-458010Y4163820D02*
X-588000Y4238870D01*
X-458770Y4212540D01*
X-546190Y4311300D01*
X-416200Y4236250D01*
G01X-393290Y4275930D02*
X-523280Y4350980D01*
G01X-489510Y4409480D02*
X-359520Y4334430D01*
G01X-424510Y4371950D02*
X-458290Y4313450D01*
G01X-359390Y4394680D02*
X-339400Y4394280D01*
X-324310Y4400420D01*
X-314900Y4411710D01*
X-310630Y4424100D01*
X-315030Y4441500D01*
X-324010Y4455970D01*
X-336210Y4464870D01*
X-352980Y4470830D01*
X-369440Y4467340D01*
X-379410Y4460090D01*
X-386640Y4447560D01*
G01X-379410Y4460090D02*
X-381080Y4472200D01*
X-387890Y4485420D01*
X-399280Y4495710D01*
X-413890Y4500430D01*
X-428740Y4499720D01*
X-442480Y4490940D01*
X-447550Y4477150D01*
X-446120Y4459610D01*
G01X-315170Y4561340D02*
X-299090Y4589200D01*
X-260090Y4566680D01*
X-251920Y4550820D01*
X-248880Y4536060D01*
X-252590Y4519630D01*
X-264970Y4508210D01*
X-279260Y4503460D01*
X-297090Y4502610D01*
X-315470Y4505790D01*
X-334410Y4513010D01*
X-349580Y4521770D01*
X-360960Y4532060D01*
X-372920Y4546390D01*
X-381090Y4562250D01*
X-384930Y4575610D01*
X-385000Y4590500D01*
X-379370Y4600250D01*
X-368600Y4608900D01*
X-355110Y4612250D01*
G01X-212800Y4588560D02*
X-342790Y4663610D01*
X-175810Y4652630D01*
X-305800Y4727680D01*
G01X-151300Y4695090D02*
X-281290Y4770140D01*
X-265200Y4798000D01*
X-252270Y4805390D01*
X-238780Y4808740D01*
X-221760Y4808210D01*
X-203380Y4805020D01*
X-180910Y4793900D01*
X-160050Y4780000D01*
X-148100Y4765680D01*
X-139120Y4751200D01*
X-135280Y4737840D01*
X-135210Y4722950D01*
X-151300Y4695090D01*
G01X281990Y-4786370D02*
X152000Y-4711320D01*
X281230Y-4737650D01*
X193810Y-4638890D01*
X323800Y-4713940D01*
G01X346710Y-4674260D02*
X216720Y-4599210D01*
G01X250490Y-4540710D02*
X380480Y-4615760D01*
G01X315490Y-4578240D02*
X281710Y-4636740D01*
G01X354860Y-4535070D02*
X345320Y-4516560D01*
X341480Y-4503200D01*
X343580Y-4489560D01*
X353540Y-4482310D01*
X366220Y-4480350D01*
X382440Y-4482280D01*
X398410Y-4489640D01*
X410610Y-4498540D01*
X420390Y-4511620D01*
X426400Y-4526230D01*
X425100Y-4538480D01*
X414330Y-4547120D01*
X395710Y-4549370D01*
X372990Y-4543680D01*
X350520Y-4532570D01*
X323970Y-4513520D01*
X311210Y-4500580D01*
X300070Y-4484870D01*
X294860Y-4468860D01*
X298330Y-4457860D01*
X308290Y-4450610D01*
X323140Y-4449900D01*
G01X424830Y-4388850D02*
X440910Y-4360990D01*
X479910Y-4383510D01*
X488080Y-4399370D01*
X491120Y-4414130D01*
X487410Y-4430560D01*
X475030Y-4441980D01*
X460740Y-4446730D01*
X442910Y-4447580D01*
X424530Y-4444400D01*
X405590Y-4437180D01*
X390420Y-4428420D01*
X379040Y-4418130D01*
X367080Y-4403800D01*
X358910Y-4387940D01*
X355070Y-4374580D01*
X355000Y-4359690D01*
X360630Y-4349940D01*
X371400Y-4341290D01*
X384890Y-4337940D01*
G01X527200Y-4361630D02*
X397210Y-4286580D01*
X564190Y-4297560D01*
X434200Y-4222510D01*
G01X588700Y-4255100D02*
X458710Y-4180050D01*
X474800Y-4152190D01*
X487730Y-4144800D01*
X501220Y-4141450D01*
X518240Y-4141980D01*
X536620Y-4145170D01*
X559090Y-4156290D01*
X579950Y-4170190D01*
X591900Y-4184510D01*
X600880Y-4198990D01*
X604720Y-4212350D01*
X604790Y-4227240D01*
X588700Y-4255100D01*
G01X321640Y-4248750D02*
X191650Y-4173700D01*
X320880Y-4200030D01*
X233460Y-4101270D01*
X363450Y-4176320D01*
G01X386360Y-4136640D02*
X256370Y-4061590D01*
G01X290140Y-4003090D02*
X420130Y-4078140D01*
G01X355140Y-4040620D02*
X321360Y-4099120D01*
G01X394510Y-3997450D02*
X384970Y-3978940D01*
X381130Y-3965580D01*
X383230Y-3951940D01*
X393190Y-3944690D01*
X405870Y-3942730D01*
X422090Y-3944660D01*
X438060Y-3952020D01*
X450260Y-3960920D01*
X460040Y-3974000D01*
X466050Y-3988610D01*
X464750Y-4000860D01*
X453980Y-4009500D01*
X435360Y-4011750D01*
X412640Y-4006060D01*
X390170Y-3994950D01*
X363620Y-3975900D01*
X350860Y-3962960D01*
X339720Y-3947250D01*
X334510Y-3931240D01*
X337980Y-3920240D01*
X347940Y-3912990D01*
X362790Y-3912280D01*
G01X461750Y-3845950D02*
X458470Y-3836620D01*
X450050Y-3826190D01*
X436490Y-3814640D01*
X421880Y-3809930D01*
X410000Y-3810500D01*
X397870Y-3816490D01*
X376160Y-3854100D01*
X506150Y-3929150D01*
X532690Y-3883180D01*
X529650Y-3868430D01*
X519870Y-3855360D01*
X506310Y-3843810D01*
X489540Y-3837850D01*
X471710Y-3838700D01*
X461750Y-3845950D01*
X436820Y-3889120D01*
G01X445700Y-3733640D02*
X465000Y-3700210D01*
G01X455350Y-3716930D02*
X585340Y-3791980D01*
G01X575690Y-3808690D02*
X594990Y-3775260D01*
G01X625940Y-3721660D02*
X516050Y-3611790D01*
X666150Y-3652010D01*
G01X613420Y-3638280D02*
X587680Y-3682860D01*
G01X672530Y-3600940D02*
X689790Y-3596050D01*
X703530Y-3587270D01*
X709960Y-3576120D01*
X709900Y-3561230D01*
X703890Y-3546620D01*
X691130Y-3533680D01*
X674360Y-3527710D01*
X657340Y-3527170D01*
X641440Y-3534700D01*
X627450Y-3548920D01*
X613160Y-3553660D01*
X595580Y-3549090D01*
X582020Y-3537540D01*
X575210Y-3524330D01*
X574340Y-3510820D01*
X579970Y-3501070D01*
X589930Y-3493820D01*
X605590Y-3491720D01*
G01X402880Y4088950D02*
X272890Y4164000D01*
X402120Y4137670D01*
X314700Y4236430D01*
X444690Y4161380D01*
G01X467600Y4201060D02*
X337610Y4276110D01*
G01X371380Y4334610D02*
X501370Y4259560D01*
G01X436380Y4297080D02*
X402600Y4238580D01*
G01X501500Y4319810D02*
X521490Y4319410D01*
X536580Y4325550D01*
X545990Y4336840D01*
X550260Y4349230D01*
X545860Y4366630D01*
X536880Y4381100D01*
X524680Y4390000D01*
X507910Y4395960D01*
X491450Y4392470D01*
X481480Y4385220D01*
X474250Y4372690D01*
G01X481480Y4385220D02*
X479810Y4397330D01*
X473000Y4410550D01*
X461610Y4420840D01*
X447000Y4425560D01*
X432150Y4424850D01*
X418410Y4416070D01*
X413340Y4402280D01*
X414770Y4384740D01*
G01X589800Y4412730D02*
X459810Y4487780D01*
X479110Y4521210D01*
X492050Y4528600D01*
X512030Y4528200D01*
X530970Y4520980D01*
X546700Y4508190D01*
X555680Y4493720D01*
X554940Y4477430D01*
X535640Y4444000D01*
G01X303800Y3735220D02*
X292470Y3730620D01*
X282510Y3723370D01*
X276080Y3712230D01*
X275340Y3695940D01*
X280540Y3679940D01*
X289520Y3665470D01*
X307970Y3647380D01*
X326660Y3634730D01*
X347770Y3626270D01*
X363180Y3622940D01*
X381010Y3623790D01*
X395300Y3628540D01*
X405260Y3635780D01*
X410890Y3645530D01*
X412190Y3657790D01*
X410520Y3669900D01*
X405880Y3681860D01*
G01X465960Y3740920D02*
X457360Y3731030D01*
X443070Y3726290D01*
X425250Y3725430D01*
X406860Y3728620D01*
X387920Y3735840D01*
X370590Y3745850D01*
X354870Y3758640D01*
X342920Y3772970D01*
X334750Y3788830D01*
X331710Y3803580D01*
X335970Y3815970D01*
X344570Y3825870D01*
X358870Y3830610D01*
X376690Y3831470D01*
X395080Y3828280D01*
X414020Y3821060D01*
X431350Y3811060D01*
X447070Y3798260D01*
X459020Y3783930D01*
X467200Y3768070D01*
X470230Y3753320D01*
X465960Y3740920D01*
G01X508170Y3814030D02*
X378180Y3889080D01*
X545160Y3878100D01*
X415170Y3953150D01*
G01X543680Y3935570D02*
X563670Y3935170D01*
X578760Y3941310D01*
X588170Y3952600D01*
X592440Y3964990D01*
X588040Y3982390D01*
X579060Y3996860D01*
X566860Y4005760D01*
X550090Y4011720D01*
X533630Y4008230D01*
X523660Y4000980D01*
X516430Y3988450D01*
G01X523660Y4000980D02*
X521990Y4013090D01*
X515180Y4026310D01*
X503790Y4036600D01*
X489180Y4041320D01*
X474330Y4040610D01*
X460590Y4031830D01*
X455520Y4018040D01*
X456950Y4000500D01*
G01X1372250Y4116140D02*
X1297200Y3986150D01*
X1323530Y4115380D01*
X1224770Y4027960D01*
X1299820Y4157950D01*
G01X1230900Y4197740D02*
X1240790Y4189140D01*
X1245530Y4174850D01*
X1246390Y4157030D01*
X1243200Y4138640D01*
X1235980Y4119700D01*
X1225970Y4102370D01*
X1213180Y4086650D01*
X1198850Y4074700D01*
X1182990Y4066530D01*
X1168240Y4063490D01*
X1155850Y4067750D01*
X1145950Y4076350D01*
X1141210Y4090650D01*
X1140350Y4108470D01*
X1143540Y4126860D01*
X1150760Y4145800D01*
X1160760Y4163130D01*
X1173560Y4178850D01*
X1187890Y4190800D01*
X1203750Y4198980D01*
X1218500Y4202010D01*
X1230900Y4197740D01*
G01X1157790Y4239950D02*
X1082740Y4109960D01*
X1093720Y4276940D01*
X1018670Y4146950D01*
G01X1020620Y4319140D02*
X1030510Y4310540D01*
X1035250Y4296250D01*
X1036110Y4278430D01*
X1032920Y4260040D01*
X1025700Y4241100D01*
X1015690Y4223770D01*
X1002900Y4208050D01*
X988570Y4196100D01*
X972710Y4187930D01*
X957960Y4184890D01*
X945570Y4189150D01*
X935670Y4197750D01*
X930930Y4212050D01*
X930070Y4229870D01*
X933260Y4248260D01*
X940480Y4267200D01*
X950480Y4284530D01*
X963280Y4300250D01*
X977610Y4312200D01*
X993470Y4320380D01*
X1008220Y4323410D01*
X1020620Y4319140D01*
G01X1342720Y3480010D02*
X1355590Y3467500D01*
X1370070Y3460000D01*
X1382930D01*
X1395800Y3467500D01*
X1405450Y3480010D01*
X1410280Y3497530D01*
X1407060Y3515030D01*
X1399020Y3530050D01*
X1384540Y3540050D01*
X1365240Y3545060D01*
X1353980Y3555060D01*
X1349160Y3572570D01*
X1352380Y3590090D01*
X1360420Y3602590D01*
X1371670Y3610100D01*
X1382930D01*
X1394190Y3605100D01*
X1403840Y3592590D01*
G01X1497900Y3460000D02*
Y3527540D01*
X1465730Y3610100D01*
G01X1530070D02*
X1497900Y3527540D01*
G01X1585520Y3480010D02*
X1598390Y3467500D01*
X1612870Y3460000D01*
X1625730D01*
X1638600Y3467500D01*
X1648250Y3480010D01*
X1653080Y3497530D01*
X1649860Y3515030D01*
X1641820Y3530050D01*
X1627340Y3540050D01*
X1608040Y3545060D01*
X1596780Y3555060D01*
X1591960Y3572570D01*
X1595180Y3590090D01*
X1603220Y3602590D01*
X1614470Y3610100D01*
X1625730D01*
X1636990Y3605100D01*
X1646640Y3592590D01*
G01X1750350Y3535050D02*
X1782520D01*
Y3490020D01*
X1772870Y3475010D01*
X1761610Y3465000D01*
X1745530Y3460000D01*
X1729440Y3465000D01*
X1718180Y3475010D01*
X1708530Y3490020D01*
X1702100Y3507530D01*
X1698880Y3527540D01*
Y3545060D01*
X1702100Y3560060D01*
X1708530Y3577580D01*
X1718180Y3592590D01*
X1727830Y3602590D01*
X1740700Y3610100D01*
X1751960D01*
X1764820Y3605100D01*
X1774480Y3595090D01*
G01X1825110Y3460000D02*
Y3610100D01*
X1899090Y3460000D01*
Y3610100D01*
G01X1948120Y3460000D02*
Y3610100D01*
X1980280D01*
X1993150Y3602590D01*
X2002800Y3592590D01*
X2010840Y3577580D01*
X2017280Y3560060D01*
X2018880Y3535050D01*
X2017280Y3510030D01*
X2010840Y3492520D01*
X2002800Y3477510D01*
X1993150Y3467500D01*
X1980280Y3460000D01*
X1948120D01*
G01X2878550Y-3246470D02*
X2803500Y-3116480D01*
X2902260Y-3203900D01*
X2875930Y-3074670D01*
X2950980Y-3204660D01*
G01X3019900Y-3164870D02*
X3007510Y-3169130D01*
X2992760Y-3166100D01*
X2976900Y-3157920D01*
X2962570Y-3145970D01*
X2949780Y-3130250D01*
X2939770Y-3112920D01*
X2932550Y-3093980D01*
X2929360Y-3075590D01*
X2930220Y-3057770D01*
X2934960Y-3043470D01*
X2944850Y-3034880D01*
X2957250Y-3030610D01*
X2972000Y-3033650D01*
X2987860Y-3041820D01*
X3002190Y-3053770D01*
X3014990Y-3069490D01*
X3024990Y-3086820D01*
X3032210Y-3105760D01*
X3035400Y-3124150D01*
X3034550Y-3141970D01*
X3029800Y-3156270D01*
X3019900Y-3164870D01*
G01X3093010Y-3122660D02*
X3017960Y-2992670D01*
X3157080Y-3085670D01*
X3082030Y-2955680D01*
G01X3230180Y-3043470D02*
X3217790Y-3047730D01*
X3203040Y-3044700D01*
X3187180Y-3036520D01*
X3172850Y-3024570D01*
X3160060Y-3008850D01*
X3150050Y-2991520D01*
X3142830Y-2972580D01*
X3139640Y-2954190D01*
X3140500Y-2936370D01*
X3145240Y-2922070D01*
X3155130Y-2913480D01*
X3167530Y-2909210D01*
X3182280Y-2912250D01*
X3198140Y-2920420D01*
X3212470Y-2932370D01*
X3225270Y-2948090D01*
X3235270Y-2965420D01*
X3242490Y-2984360D01*
X3245680Y-3002750D01*
X3244830Y-3020570D01*
X3240080Y-3034870D01*
X3230180Y-3043470D01*
G01X3333500Y-2383950D02*
X3463490Y-2308900D01*
X3376070Y-2407660D01*
X3505300Y-2381330D01*
X3375310Y-2456380D01*
G01X3398220Y-2496060D02*
X3528210Y-2421010D01*
G01X3561980Y-2479510D02*
X3431990Y-2554560D01*
G01X3496990Y-2517030D02*
X3463210Y-2458530D01*
G01X3477610Y-2588550D02*
X3471600Y-2603160D01*
X3470730Y-2616660D01*
X3475800Y-2630440D01*
X3487380Y-2640480D01*
X3501670Y-2645230D01*
X3520860Y-2643440D01*
X3538990Y-2634820D01*
X3554720Y-2622030D01*
X3561530Y-2608810D01*
X3564560Y-2594060D01*
X3561100Y-2583060D01*
X3553310Y-2574560D01*
X3537400Y-2567030D01*
X3596150Y-2538680D01*
X3617860Y-2576290D01*
G01X3520420Y-2707730D02*
X3650410Y-2632680D01*
X3669710Y-2666110D01*
X3669640Y-2681000D01*
X3659310Y-2698120D01*
X3643580Y-2710910D01*
X3624640Y-2718130D01*
X3607620Y-2718670D01*
X3593880Y-2709890D01*
X3574580Y-2676460D01*
G01X3213890Y-1703750D02*
X3343880Y-1628700D01*
X3256460Y-1727460D01*
X3385690Y-1701130D01*
X3255700Y-1776180D01*
G01X3278610Y-1815860D02*
X3408600Y-1740810D01*
G01X3442370Y-1799310D02*
X3312380Y-1874360D01*
G01X3377380Y-1836830D02*
X3343600Y-1778330D01*
G01X3358000Y-1908350D02*
X3351990Y-1922960D01*
X3351120Y-1936460D01*
X3356190Y-1950240D01*
X3367770Y-1960280D01*
X3382060Y-1965030D01*
X3401250Y-1963240D01*
X3419380Y-1954620D01*
X3435110Y-1941830D01*
X3441920Y-1928610D01*
X3444950Y-1913860D01*
X3441490Y-1902860D01*
X3433700Y-1894360D01*
X3417790Y-1886830D01*
X3476540Y-1858480D01*
X3498250Y-1896090D01*
G01X3398400Y-2023350D02*
X3528390Y-1948300D01*
X3435390Y-2087420D01*
X3565380Y-2012370D01*
G01X3108680Y-2121210D02*
X3110360Y-2109100D01*
X3109060Y-2096850D01*
X3102630Y-2085710D01*
X3088890Y-2076930D01*
X3072430Y-2073430D01*
X3055410Y-2073970D01*
X3030530Y-2080910D01*
X3010230Y-2090770D01*
X2992340Y-2104820D01*
X2981750Y-2116500D01*
X2973570Y-2132360D01*
X2970540Y-2147120D01*
X2971830Y-2159360D01*
X2977460Y-2169110D01*
X2987430Y-2176360D01*
X2998750Y-2180970D01*
X3011430Y-2182930D01*
G01X3032530Y-2264500D02*
X3028270Y-2252110D01*
X3031300Y-2237360D01*
X3039480Y-2221500D01*
X3051430Y-2207170D01*
X3067150Y-2194380D01*
X3084480Y-2184370D01*
X3103420Y-2177150D01*
X3121810Y-2173960D01*
X3139630Y-2174820D01*
X3153930Y-2179560D01*
X3162520Y-2189450D01*
X3166790Y-2201850D01*
X3163750Y-2216600D01*
X3155580Y-2232460D01*
X3143630Y-2246790D01*
X3127910Y-2259590D01*
X3110580Y-2269590D01*
X3091640Y-2276810D01*
X3073250Y-2280000D01*
X3055430Y-2279150D01*
X3041130Y-2274400D01*
X3032530Y-2264500D01*
G01X3074740Y-2337610D02*
X3204730Y-2262560D01*
X3111730Y-2401680D01*
X3241720Y-2326630D01*
G01X3155740Y-2432890D02*
X3149730Y-2447500D01*
X3148860Y-2461000D01*
X3153930Y-2474780D01*
X3165510Y-2484820D01*
X3179800Y-2489570D01*
X3198990Y-2487780D01*
X3217120Y-2479160D01*
X3232850Y-2466370D01*
X3239660Y-2453150D01*
X3242690Y-2438400D01*
X3239230Y-2427400D01*
X3231440Y-2418900D01*
X3215530Y-2411370D01*
X3274280Y-2383020D01*
X3295990Y-2420630D01*
G01X3282650Y-1256250D02*
X3412640Y-1181200D01*
X3325220Y-1279960D01*
X3454450Y-1253630D01*
X3324460Y-1328680D01*
G01X3347370Y-1368360D02*
X3477360Y-1293310D01*
G01X3511130Y-1351810D02*
X3381140Y-1426860D01*
G01X3446140Y-1389330D02*
X3412360Y-1330830D01*
G01X3426760Y-1460850D02*
X3420750Y-1475460D01*
X3419880Y-1488960D01*
X3424950Y-1502740D01*
X3436530Y-1512780D01*
X3450820Y-1517530D01*
X3470010Y-1515740D01*
X3488140Y-1507120D01*
X3503870Y-1494330D01*
X3510680Y-1481110D01*
X3513710Y-1466360D01*
X3510250Y-1455360D01*
X3502460Y-1446860D01*
X3486550Y-1439330D01*
X3545300Y-1410980D01*
X3567010Y-1448590D01*
G01X3561420Y-1579000D02*
X3571130Y-1580820D01*
X3584370Y-1578750D01*
X3601150Y-1572780D01*
X3612540Y-1562480D01*
X3617990Y-1551910D01*
X3618860Y-1538410D01*
X3597150Y-1500800D01*
X3467160Y-1575850D01*
X3493700Y-1621820D01*
X3507990Y-1626560D01*
X3524210Y-1624630D01*
X3540980Y-1618660D01*
X3554540Y-1607120D01*
X3562710Y-1591250D01*
X3561420Y-1579000D01*
X3536490Y-1535820D01*
G01X3666700Y-1621260D02*
X3685990Y-1654690D01*
G01X3676340Y-1637970D02*
X3546350Y-1713020D01*
G01X3536700Y-1696310D02*
X3556000Y-1729740D01*
G01X3586950Y-1783340D02*
X3737040Y-1743110D01*
X3627160Y-1852990D01*
G01X3665420Y-1814180D02*
X3639680Y-1769610D01*
G01X3668200Y-1884050D02*
X3663800Y-1901450D01*
X3664540Y-1917730D01*
X3670970Y-1928880D01*
X3683900Y-1936270D01*
X3699560Y-1938370D01*
X3717140Y-1933790D01*
X3730700Y-1922250D01*
X3739670Y-1907780D01*
X3741100Y-1890240D01*
X3735790Y-1871030D01*
X3738820Y-1856280D01*
X3751580Y-1843340D01*
X3768350Y-1837370D01*
X3783200Y-1838080D01*
X3795330Y-1844080D01*
X3800960Y-1853830D01*
X3802260Y-1866080D01*
X3796250Y-1880690D01*
G01X3432480Y1604010D02*
X3422830Y1611520D01*
X3411580Y1616520D01*
X3398710D01*
X3384230Y1609010D01*
X3372980Y1596510D01*
X3364930Y1581490D01*
X3358500Y1556480D01*
X3356890Y1533960D01*
X3360110Y1511450D01*
X3364930Y1496440D01*
X3374580Y1481430D01*
X3385840Y1471420D01*
X3397100Y1466420D01*
X3408360D01*
X3419620Y1471420D01*
X3429270Y1478930D01*
X3437310Y1488930D01*
G01X3518500Y1466420D02*
X3505630Y1468920D01*
X3494380Y1478930D01*
X3484720Y1493940D01*
X3478290Y1511450D01*
X3475070Y1531460D01*
Y1551480D01*
X3478290Y1571490D01*
X3484720Y1589000D01*
X3494380Y1604010D01*
X3505630Y1614020D01*
X3518500Y1616520D01*
X3531370Y1614020D01*
X3542620Y1604010D01*
X3552280Y1589000D01*
X3558710Y1571490D01*
X3561930Y1551480D01*
Y1531460D01*
X3558710Y1511450D01*
X3552280Y1493940D01*
X3542620Y1478930D01*
X3531370Y1468920D01*
X3518500Y1466420D01*
G01X3602910D02*
Y1616520D01*
X3676890Y1466420D01*
Y1616520D01*
G01X3780600Y1466420D02*
Y1616520D01*
X3721090Y1508950D01*
X3801510D01*
G01X3334380Y2485000D02*
Y2635100D01*
X3376200Y2510020D01*
X3418020Y2635100D01*
Y2485000D01*
G01X3463820D02*
Y2635100D01*
G01X3531380D02*
Y2485000D01*
G01Y2560050D02*
X3463820D01*
G01X3638300Y2485000D02*
Y2635100D01*
X3578790Y2527530D01*
X3659210D01*
G01X3750050Y2560050D02*
X3782220D01*
Y2515020D01*
X3772570Y2500010D01*
X3761310Y2490000D01*
X3745230Y2485000D01*
X3729140Y2490000D01*
X3717880Y2500010D01*
X3708230Y2515020D01*
X3701800Y2532530D01*
X3698580Y2552540D01*
Y2570060D01*
X3701800Y2585060D01*
X3708230Y2602580D01*
X3717880Y2617590D01*
X3727530Y2627590D01*
X3740400Y2635100D01*
X3751660D01*
X3764520Y2630100D01*
X3774180Y2620090D01*
G01X3824810Y2485000D02*
Y2635100D01*
X3898790Y2485000D01*
Y2635100D01*
G01X3947820Y2485000D02*
Y2635100D01*
X3979980D01*
X3992850Y2627590D01*
X4002500Y2617590D01*
X4010540Y2602580D01*
X4016980Y2585060D01*
X4018580Y2560050D01*
X4016980Y2535030D01*
X4010540Y2517520D01*
X4002500Y2502510D01*
X3992850Y2492500D01*
X3979980Y2485000D01*
X3947820D01*
G01X3066380Y1935000D02*
Y2085100D01*
X3108200Y1960020D01*
X3150020Y2085100D01*
Y1935000D01*
G01X3195820D02*
Y2085100D01*
G01X3263380D02*
Y1935000D01*
G01Y2010050D02*
X3195820D01*
G01X3370300Y1935000D02*
Y2085100D01*
X3310790Y1977530D01*
X3391210D01*
G01X3435410Y1935000D02*
Y2085100D01*
X3509390Y1935000D01*
Y2085100D01*
G01X2714280Y2265000D02*
Y2415100D01*
X2756100Y2290020D01*
X2797920Y2415100D01*
Y2265000D01*
G01X2843720D02*
Y2415100D01*
G01X2911280D02*
Y2265000D01*
G01Y2340050D02*
X2843720D01*
G01X3018200Y2265000D02*
Y2415100D01*
X2958690Y2307530D01*
X3039110D01*
G01X3133170Y2345050D02*
X3139600Y2352560D01*
X3144420Y2365060D01*
X3147640Y2382580D01*
X3144420Y2397590D01*
X3137990Y2407590D01*
X3126730Y2415100D01*
X3083310D01*
Y2265000D01*
X3136380D01*
X3147640Y2275000D01*
X3154080Y2290020D01*
X3157290Y2307530D01*
X3154080Y2325040D01*
X3144420Y2340050D01*
X3133170Y2345050D01*
X3083310D01*
G01X3222400Y2415100D02*
X3261000D01*
G01X3241700D02*
Y2265000D01*
G01X3222400D02*
X3261000D01*
G01X3322890D02*
X3363100Y2415100D01*
X3403310Y2265000D01*
G01X3388830Y2317530D02*
X3337360D01*
G01X3450720Y2285010D02*
X3463590Y2272500D01*
X3478070Y2265000D01*
X3490930D01*
X3503800Y2272500D01*
X3513450Y2285010D01*
X3518280Y2302530D01*
X3515060Y2320030D01*
X3507020Y2335050D01*
X3492540Y2345050D01*
X3473240Y2350060D01*
X3461980Y2360060D01*
X3457160Y2377570D01*
X3460380Y2395090D01*
X3468420Y2407590D01*
X3479670Y2415100D01*
X3490930D01*
X3502190Y2410100D01*
X3511840Y2397590D01*
G01X3832620Y-1659020D02*
X3962610Y-1583970D01*
X3875190Y-1682730D01*
X4004420Y-1656400D01*
X3874430Y-1731450D01*
G01X3897340Y-1771130D02*
X4027330Y-1696080D01*
G01X4061100Y-1754580D02*
X3931110Y-1829630D01*
G01X3996110Y-1792100D02*
X3962330Y-1733600D01*
G01X3976730Y-1863620D02*
X3970720Y-1878230D01*
X3969850Y-1891730D01*
X3974920Y-1905510D01*
X3986500Y-1915550D01*
X4000790Y-1920300D01*
X4019980Y-1918510D01*
X4038110Y-1909890D01*
X4053840Y-1897100D01*
X4060650Y-1883880D01*
X4063680Y-1869130D01*
X4060220Y-1858130D01*
X4052430Y-1849630D01*
X4036520Y-1842100D01*
X4095270Y-1813750D01*
X4116980Y-1851360D01*
G01X4105440Y-1981490D02*
X4121530Y-2009350D01*
X4082530Y-2031860D01*
X4064700Y-2031010D01*
X4050410Y-2026260D01*
X4038040Y-2014830D01*
X4034330Y-1998410D01*
X4037360Y-1983650D01*
X4045540Y-1967790D01*
X4057490Y-1953460D01*
X4073210Y-1940670D01*
X4088380Y-1931910D01*
X4102980Y-1927190D01*
X4121370Y-1924010D01*
X4139190Y-1924860D01*
X4152680Y-1928220D01*
X4165610Y-1935600D01*
X4171240Y-1945350D01*
X4173350Y-1959000D01*
X4169500Y-1972360D01*
G01X4077830Y-2083760D02*
X4207820Y-2008710D01*
X4114820Y-2147830D01*
X4244810Y-2072780D01*
G01X4139330Y-2190290D02*
X4269320Y-2115240D01*
X4285410Y-2143100D01*
X4285340Y-2158000D01*
X4281500Y-2171360D01*
X4272520Y-2185830D01*
X4260570Y-2200150D01*
X4239710Y-2214050D01*
X4217240Y-2225170D01*
X4198860Y-2228360D01*
X4181840Y-2228900D01*
X4168350Y-2225540D01*
X4155420Y-2218150D01*
X4139330Y-2190290D01*
G01X4250800Y869660D02*
X4100700D01*
X4225780Y911480D01*
X4100700Y953300D01*
X4250800D01*
G01Y1032880D02*
X4248300Y1020010D01*
X4238290Y1008760D01*
X4223280Y999100D01*
X4205770Y992670D01*
X4185760Y989450D01*
X4165740D01*
X4145730Y992670D01*
X4128220Y999100D01*
X4113210Y1008760D01*
X4103200Y1020010D01*
X4100700Y1032880D01*
X4103200Y1045750D01*
X4113210Y1057000D01*
X4128220Y1066660D01*
X4145730Y1073090D01*
X4165740Y1076310D01*
X4185760D01*
X4205770Y1073090D01*
X4223280Y1066660D01*
X4238290Y1057000D01*
X4248300Y1045750D01*
X4250800Y1032880D01*
G01Y1117290D02*
X4100700D01*
X4250800Y1191270D01*
X4100700D01*
G01X4250800Y1275680D02*
X4248300Y1262810D01*
X4238290Y1251560D01*
X4223280Y1241900D01*
X4205770Y1235470D01*
X4185760Y1232250D01*
X4165740D01*
X4145730Y1235470D01*
X4128220Y1241900D01*
X4113210Y1251560D01*
X4103200Y1262810D01*
X4100700Y1275680D01*
X4103200Y1288550D01*
X4113210Y1299800D01*
X4128220Y1309460D01*
X4145730Y1315890D01*
X4165740Y1319110D01*
X4185760D01*
X4205770Y1315890D01*
X4223280Y1309460D01*
X4238290Y1299800D01*
X4248300Y1288550D01*
X4250800Y1275680D01*
G01X3716380Y1695000D02*
Y1845100D01*
X3758200Y1720020D01*
X3800020Y1845100D01*
Y1695000D01*
G01X3845820D02*
Y1845100D01*
G01X3913380D02*
Y1695000D01*
G01Y1770050D02*
X3845820D01*
G01X4020300Y1695000D02*
Y1845100D01*
X3960790Y1737530D01*
X4041210D01*
G01X4090230Y1695000D02*
Y1845100D01*
X4128830D01*
X4141700Y1837590D01*
X4151350Y1820080D01*
X4154570Y1800070D01*
X4151350Y1780060D01*
X4143310Y1765050D01*
X4128830Y1757540D01*
X4090230D01*
G54D13*
G01X-4295800Y-1343580D02*
Y-793580D01*
X-2845800D01*
Y-1393580D01*
X-4295800D01*
Y-1343580D01*
G01X-3311480Y3048480D02*
X-2835160Y3323480D01*
X-2110160Y2067740D01*
X-2629780Y1767740D01*
X-3354780Y3023480D01*
X-3311480Y3048480D01*
G01X-984320Y-4392060D02*
X-1460640Y-4117060D01*
X-735640Y-2861320D01*
X-216020Y-3161320D01*
X-941020Y-4417060D01*
X-984320Y-4392060D01*
G01X984320Y4392060D02*
X1460640Y4117060D01*
X735640Y2861320D01*
X216020Y3161320D01*
X941020Y4417060D01*
X984320Y4392060D01*
G01X3311480Y-3048480D02*
X2835160Y-3323480D01*
X2110160Y-2067740D01*
X2629780Y-1767740D01*
X3354780Y-3023480D01*
X3311480Y-3048480D01*
G01X4295800Y1343580D02*
Y793580D01*
X2845800D01*
Y1393580D01*
X4295800D01*
Y1343580D01*
G54D14*
G01X0Y2771280D02*
X2400000Y1385630D01*
Y-1385630D01*
X0Y-2771280D01*
X-2400000Y-1385630D01*
Y1385630D01*
X0Y2771280D01*
M02*
