G04 ================== begin FILE IDENTIFICATION RECORD ==================*
G04 Layout Name:  H:/JJL/PROJ/GS-Respeaker-Adapter/DESIGN/Adapter-Rev01.brd*
G04 Film Name:    SixMicAdapter-LAYER1-20200424*
G04 File Format:  Gerber RS274X*
G04 File Origin:  Cadence Allegro 16.6-2015-S108*
G04 Origin Date:  Fri Apr 24 13:42:38 2020*
G04 *
G04 Layer:  VIA CLASS/TOP*
G04 Layer:  PIN/TOP*
G04 Layer:  MANUFACTURING/TOP_FILM*
G04 Layer:  MANUFACTURING/ALL_FILM*
G04 Layer:  ETCH/TOP*
G04 *
G04 Offset:    (0.0000 0.0000)*
G04 Mirror:    No*
G04 Mode:      Positive*
G04 Rotation:  0*
G04 FullContactRelief:  No*
G04 UndefLineWidth:     0.0010*
G04 ================== end FILE IDENTIFICATION RECORD ====================*
%FSLAX35Y35*MOMM*%
%IR0*IPPOS*OFA0.00000B0.00000*MIA0B0*SFA1.00000B1.00000*%
%AMMACRO20*
21,1,2.3,1.9,0.0,0.0,150.*%
%ADD20MACRO20*%
%AMMACRO19*
21,1,2.3,2.1,0.0,0.0,60.*%
%ADD19MACRO19*%
%AMMACRO18*
21,1,1.8,2.1,0.0,0.0,60.*%
%ADD18MACRO18*%
%AMMACRO16*
21,1,2.3,1.9,0.0,0.0,30.*%
%ADD16MACRO16*%
%ADD12R,2.3X2.1*%
%ADD11R,1.8X2.1*%
%ADD15R,1.9X2.3*%
%ADD17C,2.2*%
%ADD10C,1.6*%
%AMMACRO13*
21,1,2.3,2.1,0.0,0.0,120.*%
%ADD13MACRO13*%
%AMMACRO14*
21,1,1.8,2.1,0.0,0.0,120.*%
%ADD14MACRO14*%
%ADD21C,.75*%
%ADD22C,1.*%
%ADD24C,3.2304*%
%ADD26C,2.6304*%
%ADD23C,2.6404*%
%ADD25R,2.9404X3.3404*%
G75*
%LPD*%
G75*
G36*
G01X199990Y-4849730D02*
G02X-199990I-199990J346401D01*
G01X-4099990Y-2598060D01*
G02X-4299990Y-2251660I199990J346404D01*
G01Y2251660D01*
G02X-4099990Y2598060I399990J-4D01*
G01X-199990Y4849730D01*
G02X199990I199990J-346401D01*
G01X4099990Y2598060D01*
G02X4299990Y2251660I-199990J-346404D01*
G01Y-2251660D01*
G02X4099990Y-2598060I-399990J4D01*
G01X199990Y-4849730D01*
G37*
%LPC*%
G75*
G36*
G01X-786400Y-4065210D02*
X-514440Y-4222230D01*
X-550310Y-4284350D01*
G03X-335910Y-4372120I290500J403871D01*
G02X-350260Y-4576160I76102J-107877D01*
G02X-643710Y-4467660I90438J695684D01*
G01X-645540Y-4466450D01*
X-655420Y-4468810D01*
X-928420Y-4311190D01*
X-786400Y-4065210D01*
G37*
G36*
G01X-7790Y-4136400D02*
G02X-211830I-102020J-83790D01*
G01Y-3506710D01*
X-400920Y-3397530D01*
X-233900Y-3108250D01*
X38060Y-3265270D01*
X-29790Y-3382790D01*
X-28970Y-3385030D01*
G02X-7790Y-3504310I-325368J-119295D01*
G01Y-4136400D01*
G37*
G36*
G01X-2988540Y-1665600D02*
X-3249230Y-1926290D01*
G02X-3618680Y-2110630I-460474J460479D01*
G02X-3634360Y-1906590I-91020J95628D01*
G03X-3393510Y-1782010I-75348J440777D01*
G01X-3142820Y-1531320D01*
Y-1351560D01*
X-2808780D01*
Y-1665600D01*
X-2988540D01*
G37*
G36*
G01X-3953780D02*
Y-1895410D01*
G02X-4140480Y-1996950I-55921J-119591D01*
G02X-4157820Y-1903710I242079J93252D01*
G01Y-1665600D01*
X-4197820D01*
Y-1351560D01*
X-3913780D01*
Y-1665600D01*
X-3953780D01*
G37*
G36*
G01X3393500Y1782010D02*
X3142820Y1531320D01*
Y1351560D01*
X2808780D01*
Y1665600D01*
X2988540D01*
X3249220Y1926290D01*
G02X3618680Y2110630I460473J-460482D01*
G02X3634360Y1906590I91020J-95628D01*
G03X3393500Y1782010I75337J-440781D01*
G37*
G36*
G01X4197820Y1665600D02*
Y1351560D01*
X3913780D01*
Y1665600D01*
X3953780D01*
Y1895410D01*
G02X4140480Y1996950I55921J119591D01*
G02X4157820Y1903710I-242079J-93252D01*
G01Y1665600D01*
X4197820D01*
G37*
G36*
G01X-3468490Y2218070D02*
X-3444590Y2194170D01*
G03X-2933400Y1935410I650221J650218D01*
G01X-2741900Y2045970D01*
X-2574880Y1756690D01*
X-2846840Y1599670D01*
X-2920900Y1727940D01*
X-2923450Y1728240D01*
G02X-3588870Y2049890I129075J1116151D01*
G01X-3612770Y2073790D01*
X-3614540Y2073990D01*
G02X-3468690Y2219840I14650J131200D01*
G01X-3468490Y2218070D01*
G37*
G36*
G01X-3269400Y2959630D02*
X-3127380Y2713650D01*
X-3399340Y2556630D01*
X-3434650Y2617790D01*
X-3446510Y2620290D01*
G03X-3471170Y2599440I112141J-157641D01*
G01X-3618490Y2452120D01*
X-3618690Y2450350D01*
G02X-3764540Y2596200I-131200J14650D01*
G01X-3762770Y2596400D01*
X-3615450Y2743720D01*
G02X-3541100Y2802160I281073J-281078D01*
G01X-3537710Y2804230D01*
X-3537840Y2804650D01*
X-3269400Y2959630D01*
G37*
G36*
G01X211830Y3506710D02*
X400920Y3397530D01*
X233900Y3108250D01*
X-38060Y3265270D01*
X29790Y3382790D01*
X28970Y3385030D01*
G02X7790Y3504310I325368J119295D01*
G01Y4136400D01*
G02X211830I102020J83790D01*
G01Y3506710D01*
G37*
G36*
G01X655420Y4468810D02*
X928420Y4311190D01*
X786400Y4065210D01*
X514440Y4222230D01*
X550310Y4284350D01*
G03X335910Y4372120I-290500J-403871D01*
G02X350260Y4576160I-76102J107877D01*
G02X643710Y4467660I-90438J-695684D01*
G01X645540Y4466450D01*
X655420Y4468810D01*
G37*
G36*
G01X-2001870Y1764210D02*
X-2291150Y1597190D01*
X-2438170Y1851830D01*
X-2148890Y2018850D01*
X-2001870Y1764210D01*
G37*
G36*
G01X-237630Y-2782790D02*
X-384650Y-3037430D01*
X-673930Y-2870410D01*
X-526910Y-2615770D01*
X-237630Y-2782790D01*
G37*
G36*
G01X673930Y2870410D02*
X526910Y2615770D01*
X237630Y2782790D01*
X384650Y3037430D01*
X673930Y2870410D01*
G37*
G36*
G01X2438170Y-1851830D02*
X2148890Y-2018850D01*
X2001870Y-1764210D01*
X2291150Y-1597190D01*
X2438170Y-1851830D01*
G37*
G36*
G01X3588850Y-2049880D02*
X3612770Y-2073800D01*
X3614540Y-2074000D01*
G02X3468690Y-2219850I-14650J-131200D01*
G01X3468490Y-2218080D01*
X3444570Y-2194160D01*
G03X2933400Y-1935410I-650204J-650208D01*
G01X2741900Y-2045970D01*
X2574880Y-1756690D01*
X2846840Y-1599670D01*
X2920900Y-1727940D01*
X2923450Y-1728240D01*
G02X3588850Y-2049880I-129077J-1116131D01*
G37*
G36*
G01X3471160Y-2599450D02*
X3618490Y-2452120D01*
X3618690Y-2450350D01*
G02X3764540Y-2596200I131200J-14650D01*
G01X3762770Y-2596400D01*
X3615440Y-2743730D01*
G02X3581010Y-2774370I-281025J281121D01*
G02X3540520Y-2802510I-246657J311710D01*
G01Y-2802520D01*
X3522840Y-2813310D01*
X3269400Y-2959630D01*
X3127380Y-2713650D01*
X3399340Y-2556630D01*
X3434650Y-2617790D01*
X3446510Y-2620290D01*
G03X3471160Y-2599450I-112141J157641D01*
G37*
G54D24*
X3110000Y2801660D03*
X-1490000Y2251660D03*
Y-2538340D03*
G54D26*
X1700000Y3800000D03*
G54D23*
X3709700Y2315000D03*
X3859700Y-2055200D03*
X150000Y-4370190D03*
X0Y4630000D03*
X-150000Y4370190D03*
X0Y-4630000D03*
X-4009700Y2315000D03*
X-3859700Y2055190D03*
X-3709700Y-2315000D03*
X-4009700D03*
X4009700Y2315000D03*
Y-2315000D03*
G54D25*
X2675800Y1018580D03*
X-2675800Y-1018580D03*
%LPD*%
G75*
G54D10*
X-3709700Y-2015000D03*
X-4009700D03*
Y-2315000D03*
X-3709700D03*
X-3859700Y2055190D03*
X-4009700Y2315000D03*
X-3599890Y2205190D03*
X-3749890Y2465000D03*
X0Y-4630000D03*
X-109810Y-4220190D03*
X-259810Y-4480000D03*
X-150000Y4370190D03*
X0Y4630000D03*
X150000Y-4370190D03*
X109810Y4220190D03*
X259810Y4480000D03*
X1700000Y3800000D03*
X3599890Y-2205200D03*
X3749890Y-2465000D03*
X3859700Y-2055200D03*
X4009700Y-2315000D03*
Y2315000D03*
X3709700D03*
Y2015000D03*
X4009700D03*
G54D11*
X-4055800Y-1508580D03*
X4055800Y1508580D03*
G54D20*
X-455780Y-2826600D03*
X455780Y2826600D03*
G54D21*
G01X-1490000Y-2538340D02*
X-1323380D01*
G01X-1656620D02*
X-1490000D01*
G01D02*
Y-2371720D01*
G01Y-2704960D02*
Y-2538340D01*
G01Y2251660D02*
X-1323380D01*
G01X-1656620D02*
X-1490000D01*
G01D02*
Y2418280D01*
G01Y2085040D02*
Y2251660D01*
G01X1700000Y3800000D02*
X1836620D01*
G01X1563380D02*
X1700000D01*
G01D02*
Y3936620D01*
G01Y3663380D02*
Y3800000D01*
G01X3110000Y2801660D02*
X3276620D01*
G01X2943380D02*
X3110000D01*
G01D02*
Y2968280D01*
G01Y2635040D02*
Y2801660D01*
G54D12*
X-2975800Y-1508580D03*
X2975800Y1508580D03*
G54D22*
G01X-2975800Y-1508580D02*
X-3321370Y-1854150D01*
G02X-3709700Y-2015000I-388332J388340D01*
G01X-4009700D02*
G02X-4055800Y-1903700I111300J111297D01*
G01Y-1508580D01*
G01X-3749890Y2465000D02*
X-3543310Y2671580D01*
G02X-3334370Y2758130I208942J-208930D01*
G01X-3599890Y2205190D02*
X-3516730Y2122030D01*
G03X-2794370Y1822820I722358J722360D01*
G01X-109810Y-4220190D02*
Y-3504310D01*
G03X-181430Y-3331400I-244530J2D01*
G01X-259810Y-4480000D02*
G02X-683730Y-4304400I8J599517D01*
G01X-721430Y-4266710D01*
G01X109810Y4220190D02*
Y3504310D01*
G03X181430Y3331400I244530J-2D01*
G01X259810Y4480000D02*
G02X683730Y4304400I-8J-599517D01*
G01X721430Y4266710D01*
G01X3749890Y-2465000D02*
X3543300Y-2671590D01*
G02X3334370Y-2758130I-208932J208940D01*
G01X3599890Y-2205200D02*
X3516710Y-2122020D01*
G03X2794370Y-1822820I-722340J-722350D01*
G01X3709700Y2015000D02*
G03X3321360Y1854150I-7J-549193D01*
G01X2975800Y1508580D01*
G01X4009700Y2015000D02*
G02X4055800Y1903700I-111300J-111297D01*
G01Y1508580D01*
G54D13*
X-2794370Y1822820D03*
X2794370Y-1822820D03*
G54D14*
X-3334370Y2758130D03*
X3334370Y-2758130D03*
G54D15*
X-2675800Y-1018580D03*
X2675800Y1018580D03*
G54D16*
X-2220020Y1808020D03*
X2220020Y-1808020D03*
G54D17*
X-1490000Y-2538340D03*
Y2251660D03*
X3110000Y2801660D03*
G54D18*
X-721430Y-4266710D03*
X721430Y4266710D03*
G54D19*
X-181430Y-3331400D03*
X181430Y3331400D03*
M02*
