G04 ================== begin FILE IDENTIFICATION RECORD ==================*
G04 Layout Name:  H:/JJL/PROJ/GS-Respeaker-Adapter/DESIGN/Adapter-Rev01.brd*
G04 Film Name:    SixMicAdapter-LAYER2-20200424*
G04 File Format:  Gerber RS274X*
G04 File Origin:  Cadence Allegro 16.6-2015-S108*
G04 Origin Date:  Fri Apr 24 13:42:38 2020*
G04 *
G04 Layer:  VIA CLASS/BOTTOM*
G04 Layer:  PIN/BOTTOM*
G04 Layer:  MANUFACTURING/BOTTOM_FILM*
G04 Layer:  MANUFACTURING/ALL_FILM*
G04 Layer:  ETCH/BOTTOM*
G04 *
G04 Offset:    (0.0000 0.0000)*
G04 Mirror:    No*
G04 Mode:      Positive*
G04 Rotation:  0*
G04 FullContactRelief:  No*
G04 UndefLineWidth:     0.0010*
G04 ================== end FILE IDENTIFICATION RECORD ====================*
%FSLAX35Y35*MOMM*%
%IR0*IPPOS*OFA0.00000B0.00000*MIA0B0*SFA1.00000B1.00000*%
%ADD11C,2.2*%
%ADD10C,1.6*%
%ADD12C,.75*%
%ADD14C,3.2304*%
%ADD15C,2.6304*%
%ADD13C,2.6404*%
G75*
%LPD*%
G75*
G36*
G01X199990Y-4849730D02*
G02X-199990I-199990J346401D01*
G01X-4099990Y-2598060D01*
G02X-4299990Y-2251660I199990J346404D01*
G01Y2251660D01*
G02X-4099990Y2598060I399990J-4D01*
G01X-199990Y4849730D01*
G02X199990I199990J-346401D01*
G01X4099990Y2598060D01*
G02X4299990Y2251660I-199990J-346404D01*
G01Y-2251660D01*
G02X4099990Y-2598060I-399990J4D01*
G01X199990Y-4849730D01*
G37*
%LPC*%
G75*
G54D14*
X3110000Y2801660D03*
X-1490000Y2251660D03*
Y-2538340D03*
G54D15*
X1700000Y3800000D03*
G54D13*
X4009700Y2015000D03*
X3709700D03*
Y2315000D03*
X3859700Y-2055200D03*
X259810Y4480000D03*
X109810Y4220190D03*
X150000Y-4370190D03*
X0Y4630000D03*
X-150000Y4370190D03*
X-259810Y-4480000D03*
X-109810Y-4220190D03*
X0Y-4630000D03*
X-3749890Y2465000D03*
X-3599890Y2205190D03*
X-4009700Y2315000D03*
X-3859700Y2055190D03*
X-3709700Y-2315000D03*
X-4009700D03*
Y-2015000D03*
X-3709700D03*
X4009700Y2315000D03*
X3749890Y-2465000D03*
X3599890Y-2205200D03*
X4009700Y-2315000D03*
%LPD*%
G75*
G54D10*
X-3709700Y-2015000D03*
X-4009700D03*
Y-2315000D03*
X-3709700D03*
X-3859700Y2055190D03*
X-4009700Y2315000D03*
X-3599890Y2205190D03*
X-3749890Y2465000D03*
X0Y-4630000D03*
X-109810Y-4220190D03*
X-259810Y-4480000D03*
X-150000Y4370190D03*
X0Y4630000D03*
X150000Y-4370190D03*
X109810Y4220190D03*
X259810Y4480000D03*
X1700000Y3800000D03*
X3599890Y-2205200D03*
X3749890Y-2465000D03*
X3859700Y-2055200D03*
X4009700Y-2315000D03*
Y2315000D03*
X3709700D03*
Y2015000D03*
X4009700D03*
G54D11*
X-1490000Y-2538340D03*
Y2251660D03*
X3110000Y2801660D03*
G54D12*
G01X-1490000Y-2538340D02*
X-1323380D01*
G01X-1656620D02*
X-1490000D01*
G01D02*
Y-2371720D01*
G01Y-2704960D02*
Y-2538340D01*
G01Y2251660D02*
X-1323380D01*
G01X-1656620D02*
X-1490000D01*
G01D02*
Y2418280D01*
G01Y2085040D02*
Y2251660D01*
G01X1700000Y3800000D02*
X1836620D01*
G01X1563380D02*
X1700000D01*
G01D02*
Y3936620D01*
G01Y3663380D02*
Y3800000D01*
G01X3110000Y2801660D02*
X3276620D01*
G01X2943380D02*
X3110000D01*
G01D02*
Y2968280D01*
G01Y2635040D02*
Y2801660D01*
M02*
