G04 ================== begin FILE IDENTIFICATION RECORD ==================*
G04 Layout Name:  H:/JJL/PROJ/GS-Respeaker-Adapter/DESIGN/Adapter-Rev01.brd*
G04 Film Name:    SixMicAdapter-SMASK_TOP-L1-20200424*
G04 File Format:  Gerber RS274X*
G04 File Origin:  Cadence Allegro 16.6-2015-S108*
G04 Origin Date:  Fri Apr 24 13:42:38 2020*
G04 *
G04 Layer:  VIA CLASS/SOLDERMASK_TOP*
G04 Layer:  PIN/SOLDERMASK_TOP*
G04 Layer:  PACKAGE GEOMETRY/SOLDERMASK_TOP*
G04 Layer:  MANUFACTURING/SMT_FILM*
G04 Layer:  MANUFACTURING/ALL_FILM*
G04 Layer:  ETCH/WIRE*
G04 Layer:  DRC ERROR CLASS/SOLDERMASK_TOP*
G04 Layer:  BOARD GEOMETRY/SOLDERMASK_TOP*
G04 *
G04 Offset:    (0.0000 0.0000)*
G04 Mirror:    No*
G04 Mode:      Positive*
G04 Rotation:  0*
G04 FullContactRelief:  No*
G04 UndefLineWidth:     0.0010*
G04 ================== end FILE IDENTIFICATION RECORD ====================*
%FSLAX35Y35*MOMM*%
%IR0*IPPOS*OFA0.00000B0.00000*MIA0B0*SFA1.00000B1.00000*%
%AMMACRO20*
21,1,2.3,1.9,0.0,0.0,150.*%
%ADD20MACRO20*%
%AMMACRO19*
21,1,2.3,2.1,0.0,0.0,60.*%
%ADD19MACRO19*%
%AMMACRO18*
21,1,1.8,2.1,0.0,0.0,60.*%
%ADD18MACRO18*%
%AMMACRO16*
21,1,2.3,1.9,0.0,0.0,30.*%
%ADD16MACRO16*%
%ADD12R,2.3X2.1*%
%ADD11R,1.8X2.1*%
%ADD15R,1.9X2.3*%
%ADD17C,2.6*%
%ADD10C,1.8*%
%AMMACRO13*
21,1,2.3,2.1,0.0,0.0,120.*%
%ADD13MACRO13*%
%AMMACRO14*
21,1,1.8,2.1,0.0,0.0,120.*%
%ADD14MACRO14*%
%LPD*%
G75*
G54D10*
X-3709700Y-2015000D03*
X-4009700D03*
Y-2315000D03*
X-3709700D03*
X-3859700Y2055190D03*
X-4009700Y2315000D03*
X-3599890Y2205190D03*
X-3749890Y2465000D03*
X0Y-4630000D03*
X-109810Y-4220190D03*
X-259810Y-4480000D03*
X-150000Y4370190D03*
X0Y4630000D03*
X150000Y-4370190D03*
X109810Y4220190D03*
X259810Y4480000D03*
X1700000Y3800000D03*
X3599890Y-2205200D03*
X3749890Y-2465000D03*
X3859700Y-2055200D03*
X4009700Y-2315000D03*
Y2315000D03*
X3709700D03*
Y2015000D03*
X4009700D03*
G54D11*
X-4055800Y-1508580D03*
X4055800Y1508580D03*
G54D20*
X-455780Y-2826600D03*
X455780Y2826600D03*
G54D12*
X-2975800Y-1508580D03*
X2975800Y1508580D03*
G54D13*
X-2794370Y1822820D03*
X2794370Y-1822820D03*
G54D14*
X-3334370Y2758130D03*
X3334370Y-2758130D03*
G54D15*
X-2675800Y-1018580D03*
X2675800Y1018580D03*
G54D16*
X-2220020Y1808020D03*
X2220020Y-1808020D03*
G54D17*
X-1490000Y-2538340D03*
Y2251660D03*
X3110000Y2801660D03*
G54D18*
X-721430Y-4266710D03*
X721430Y4266710D03*
G54D19*
X-181430Y-3331400D03*
X181430Y3331400D03*
M02*
